<?xml version="1.0" encoding="UTF-8" standalone="no"?>
<!DOCTYPE svg PUBLIC "-//W3C//DTD SVG 1.1//EN"
 "http://www.w3.org/Graphics/SVG/1.1/DTD/svg11.dtd">
<!-- Generated by graphviz version 2.40.1 (20161225.0304)
 -->
<!-- Title: dependency&#45;cruiser output Pages: 1 -->
<svg width="960pt" height="767pt"
 viewBox="0.00 0.00 960.04 767.00" xmlns="http://www.w3.org/2000/svg" xmlns:xlink="http://www.w3.org/1999/xlink">
<g id="graph0" class="graph" transform="scale(1 1) rotate(0) translate(4 763)">
<title>dependency&#45;cruiser output</title>
<polygon fill="#ffffff" stroke="transparent" points="-4,4 -4,-763 956.0383,-763 956.0383,4 -4,4"/>
<g id="clust1" class="cluster">
<title>cluster_/src</title>
<path fill="none" stroke="#000000" stroke-width="2" d="M20,-8C20,-8 932.0383,-8 932.0383,-8 938.0383,-8 944.0383,-14 944.0383,-20 944.0383,-20 944.0383,-739 944.0383,-739 944.0383,-745 938.0383,-751 932.0383,-751 932.0383,-751 20,-751 20,-751 14,-751 8,-745 8,-739 8,-739 8,-20 8,-20 8,-14 14,-8 20,-8"/>
<text text-anchor="middle" x="476.0192" y="-739.8" font-family="Helvetica,sans-Serif" font-weight="bold" font-size="9.00" fill="#000000">src</text>
</g>
<g id="clust2" class="cluster">
<title>cluster_/src/atoms</title>
<path fill="none" stroke="#000000" stroke-width="2" d="M531.8164,-16C531.8164,-16 924.0383,-16 924.0383,-16 930.0383,-16 936.0383,-22 936.0383,-28 936.0383,-28 936.0383,-383 936.0383,-383 936.0383,-389 930.0383,-395 924.0383,-395 924.0383,-395 531.8164,-395 531.8164,-395 525.8164,-395 519.8164,-389 519.8164,-383 519.8164,-383 519.8164,-28 519.8164,-28 519.8164,-22 525.8164,-16 531.8164,-16"/>
<text text-anchor="middle" x="727.9274" y="-383.8" font-family="Helvetica,sans-Serif" font-weight="bold" font-size="9.00" fill="#000000">atoms</text>
</g>
<g id="clust3" class="cluster">
<title>cluster_/src/atoms/LoadError</title>
<path fill="none" stroke="#000000" stroke-width="2" d="M557.322,-24C557.322,-24 618.3508,-24 618.3508,-24 624.3508,-24 630.3508,-30 630.3508,-36 630.3508,-36 630.3508,-63 630.3508,-63 630.3508,-69 624.3508,-75 618.3508,-75 618.3508,-75 557.322,-75 557.322,-75 551.322,-75 545.322,-69 545.322,-63 545.322,-63 545.322,-36 545.322,-36 545.322,-30 551.322,-24 557.322,-24"/>
<text text-anchor="middle" x="587.8364" y="-63.8" font-family="Helvetica,sans-Serif" font-weight="bold" font-size="9.00" fill="#000000">LoadError</text>
</g>
<g id="clust4" class="cluster">
<title>cluster_/src/atoms/Loading</title>
<path fill="none" stroke="#000000" stroke-width="2" d="M561.0706,-83C561.0706,-83 614.6023,-83 614.6023,-83 620.6023,-83 626.6023,-89 626.6023,-95 626.6023,-95 626.6023,-122 626.6023,-122 626.6023,-128 620.6023,-134 614.6023,-134 614.6023,-134 561.0706,-134 561.0706,-134 555.0706,-134 549.0706,-128 549.0706,-122 549.0706,-122 549.0706,-95 549.0706,-95 549.0706,-89 555.0706,-83 561.0706,-83"/>
<text text-anchor="middle" x="587.8364" y="-122.8" font-family="Helvetica,sans-Serif" font-weight="bold" font-size="9.00" fill="#000000">Loading</text>
</g>
<g id="clust5" class="cluster">
<title>cluster_/src/atoms/ProductCategories</title>
<path fill="none" stroke="#000000" stroke-width="2" d="M539.8164,-142C539.8164,-142 635.8564,-142 635.8564,-142 641.8564,-142 647.8564,-148 647.8564,-154 647.8564,-154 647.8564,-181 647.8564,-181 647.8564,-187 641.8564,-193 635.8564,-193 635.8564,-193 539.8164,-193 539.8164,-193 533.8164,-193 527.8164,-187 527.8164,-181 527.8164,-181 527.8164,-154 527.8164,-154 527.8164,-148 533.8164,-142 539.8164,-142"/>
<text text-anchor="middle" x="587.8364" y="-181.8" font-family="Helvetica,sans-Serif" font-weight="bold" font-size="9.00" fill="#000000">ProductCategories</text>
</g>
<g id="clust6" class="cluster">
<title>cluster_/src/atoms/ProductCategory</title>
<path fill="none" stroke="#000000" stroke-width="2" d="M687.9526,-142C687.9526,-142 916.0383,-142 916.0383,-142 922.0383,-142 928.0383,-148 928.0383,-154 928.0383,-154 928.0383,-181 928.0383,-181 928.0383,-187 922.0383,-193 916.0383,-193 916.0383,-193 687.9526,-193 687.9526,-193 681.9526,-193 675.9526,-187 675.9526,-181 675.9526,-181 675.9526,-154 675.9526,-154 675.9526,-148 681.9526,-142 687.9526,-142"/>
<text text-anchor="middle" x="801.9955" y="-181.8" font-family="Helvetica,sans-Serif" font-weight="bold" font-size="9.00" fill="#000000">ProductCategory</text>
</g>
<g id="clust7" class="cluster">
<title>cluster_/src/atoms/ProductFilter</title>
<path fill="none" stroke="#000000" stroke-width="2" d="M551.8245,-319C551.8245,-319 771.6506,-319 771.6506,-319 777.6506,-319 783.6506,-325 783.6506,-331 783.6506,-331 783.6506,-358 783.6506,-358 783.6506,-364 777.6506,-370 771.6506,-370 771.6506,-370 551.8245,-370 551.8245,-370 545.8245,-370 539.8245,-364 539.8245,-358 539.8245,-358 539.8245,-331 539.8245,-331 539.8245,-325 545.8245,-319 551.8245,-319"/>
<text text-anchor="middle" x="661.7375" y="-358.8" font-family="Helvetica,sans-Serif" font-weight="bold" font-size="9.00" fill="#000000">ProductFilter</text>
</g>
<g id="clust8" class="cluster">
<title>cluster_/src/atoms/ProductItem</title>
<path fill="none" stroke="#000000" stroke-width="2" d="M697.1284,-260C697.1284,-260 906.8625,-260 906.8625,-260 912.8625,-260 918.8625,-266 918.8625,-272 918.8625,-272 918.8625,-299 918.8625,-299 918.8625,-305 912.8625,-311 906.8625,-311 906.8625,-311 697.1284,-311 697.1284,-311 691.1284,-311 685.1284,-305 685.1284,-299 685.1284,-299 685.1284,-272 685.1284,-272 685.1284,-266 691.1284,-260 697.1284,-260"/>
<text text-anchor="middle" x="801.9955" y="-299.8" font-family="Helvetica,sans-Serif" font-weight="bold" font-size="9.00" fill="#000000">ProductItem</text>
</g>
<g id="clust9" class="cluster">
<title>cluster_/src/atoms/ProductList</title>
<path fill="none" stroke="#000000" stroke-width="2" d="M554.5754,-201C554.5754,-201 768.8997,-201 768.8997,-201 774.8997,-201 780.8997,-207 780.8997,-213 780.8997,-213 780.8997,-240 780.8997,-240 780.8997,-246 774.8997,-252 768.8997,-252 768.8997,-252 554.5754,-252 554.5754,-252 548.5754,-252 542.5754,-246 542.5754,-240 542.5754,-240 542.5754,-213 542.5754,-213 542.5754,-207 548.5754,-201 554.5754,-201"/>
<text text-anchor="middle" x="661.7375" y="-240.8" font-family="Helvetica,sans-Serif" font-weight="bold" font-size="9.00" fill="#000000">ProductList</text>
</g>
<g id="clust10" class="cluster">
<title>cluster_/src/components</title>
<path fill="none" stroke="#000000" stroke-width="2" d="M90,-193C90,-193 499.8164,-193 499.8164,-193 505.8164,-193 511.8164,-199 511.8164,-205 511.8164,-205 511.8164,-383 511.8164,-383 511.8164,-389 505.8164,-395 499.8164,-395 499.8164,-395 90,-395 90,-395 84,-395 78,-389 78,-383 78,-383 78,-205 78,-205 78,-199 84,-193 90,-193"/>
<text text-anchor="middle" x="294.9082" y="-383.8" font-family="Helvetica,sans-Serif" font-weight="bold" font-size="9.00" fill="#000000">components</text>
</g>
<g id="clust11" class="cluster">
<title>cluster_/src/components/App</title>
<path fill="none" stroke="#000000" stroke-width="2" d="M98,-319C98,-319 144,-319 144,-319 150,-319 156,-325 156,-331 156,-331 156,-358 156,-358 156,-364 150,-370 144,-370 144,-370 98,-370 98,-370 92,-370 86,-364 86,-358 86,-358 86,-331 86,-331 86,-325 92,-319 98,-319"/>
<text text-anchor="middle" x="121" y="-358.8" font-family="Helvetica,sans-Serif" font-weight="bold" font-size="9.00" fill="#000000">App</text>
</g>
<g id="clust12" class="cluster">
<title>cluster_/src/components/BoundAppBody</title>
<path fill="none" stroke="#000000" stroke-width="2" d="M176,-231C176,-231 337.752,-231 337.752,-231 343.752,-231 349.752,-237 349.752,-243 349.752,-243 349.752,-270 349.752,-270 349.752,-276 343.752,-282 337.752,-282 337.752,-282 176,-282 176,-282 170,-282 164,-276 164,-270 164,-270 164,-243 164,-243 164,-237 170,-231 176,-231"/>
<text text-anchor="middle" x="256.876" y="-270.8" font-family="Helvetica,sans-Serif" font-weight="bold" font-size="9.00" fill="#000000">BoundAppBody</text>
</g>
<g id="clust13" class="cluster">
<title>cluster_/src/components/BoundProductCategories</title>
<path fill="none" stroke="#000000" stroke-width="2" d="M369.752,-201C369.752,-201 491.8164,-201 491.8164,-201 497.8164,-201 503.8164,-207 503.8164,-213 503.8164,-213 503.8164,-240 503.8164,-240 503.8164,-246 497.8164,-252 491.8164,-252 491.8164,-252 369.752,-252 369.752,-252 363.752,-252 357.752,-246 357.752,-240 357.752,-240 357.752,-213 357.752,-213 357.752,-207 363.752,-201 369.752,-201"/>
<text text-anchor="middle" x="430.7842" y="-240.8" font-family="Helvetica,sans-Serif" font-weight="bold" font-size="9.00" fill="#000000">BoundProductCategories</text>
</g>
<g id="clust14" class="cluster">
<title>cluster_/src/components/BoundProductFilter</title>
<path fill="none" stroke="#000000" stroke-width="2" d="M381.76,-319C381.76,-319 479.8083,-319 479.8083,-319 485.8083,-319 491.8083,-325 491.8083,-331 491.8083,-331 491.8083,-358 491.8083,-358 491.8083,-364 485.8083,-370 479.8083,-370 479.8083,-370 381.76,-370 381.76,-370 375.76,-370 369.76,-364 369.76,-358 369.76,-358 369.76,-331 369.76,-331 369.76,-325 375.76,-319 381.76,-319"/>
<text text-anchor="middle" x="430.7842" y="-358.8" font-family="Helvetica,sans-Serif" font-weight="bold" font-size="9.00" fill="#000000">BoundProductFilter</text>
</g>
<g id="clust15" class="cluster">
<title>cluster_/src/components/BoundProductList</title>
<path fill="none" stroke="#000000" stroke-width="2" d="M384.511,-260C384.511,-260 477.0574,-260 477.0574,-260 483.0574,-260 489.0574,-266 489.0574,-272 489.0574,-272 489.0574,-299 489.0574,-299 489.0574,-305 483.0574,-311 477.0574,-311 477.0574,-311 384.511,-311 384.511,-311 378.511,-311 372.511,-305 372.511,-299 372.511,-299 372.511,-272 372.511,-272 372.511,-266 378.511,-260 384.511,-260"/>
<text text-anchor="middle" x="430.7842" y="-299.8" font-family="Helvetica,sans-Serif" font-weight="bold" font-size="9.00" fill="#000000">BoundProductList</text>
</g>
<g id="clust16" class="cluster">
<title>cluster_/src/domain</title>
<path fill="none" stroke="#000000" stroke-width="2" d="M286.0701,-403C286.0701,-403 796.6663,-403 796.6663,-403 802.6663,-403 808.6663,-409 808.6663,-415 808.6663,-415 808.6663,-714 808.6663,-714 808.6663,-720 802.6663,-726 796.6663,-726 796.6663,-726 286.0701,-726 286.0701,-726 280.0701,-726 274.0701,-720 274.0701,-714 274.0701,-714 274.0701,-415 274.0701,-415 274.0701,-409 280.0701,-403 286.0701,-403"/>
<text text-anchor="middle" x="541.3682" y="-714.8" font-family="Helvetica,sans-Serif" font-weight="bold" font-size="9.00" fill="#000000">domain</text>
</g>
<g id="clust17" class="cluster">
<title>cluster_/src/domain/actions</title>
<path fill="none" stroke="#000000" stroke-width="2" d="M535.312,-411C535.312,-411 640.3608,-411 640.3608,-411 646.3608,-411 652.3608,-417 652.3608,-423 652.3608,-423 652.3608,-537 652.3608,-537 652.3608,-543 646.3608,-549 640.3608,-549 640.3608,-549 535.312,-549 535.312,-549 529.312,-549 523.312,-543 523.312,-537 523.312,-537 523.312,-423 523.312,-423 523.312,-417 529.312,-411 535.312,-411"/>
<text text-anchor="middle" x="587.8364" y="-537.8" font-family="Helvetica,sans-Serif" font-weight="bold" font-size="9.00" fill="#000000">actions</text>
</g>
<g id="clust18" class="cluster">
<title>cluster_/src/domain/lib</title>
<path fill="none" stroke="#000000" stroke-width="2" d="M675.6106,-505C675.6106,-505 788.6663,-505 788.6663,-505 794.6663,-505 800.6663,-511 800.6663,-517 800.6663,-517 800.6663,-602 800.6663,-602 800.6663,-608 794.6663,-614 788.6663,-614 788.6663,-614 675.6106,-614 675.6106,-614 669.6106,-614 663.6106,-608 663.6106,-602 663.6106,-602 663.6106,-517 663.6106,-517 663.6106,-511 669.6106,-505 675.6106,-505"/>
<text text-anchor="middle" x="732.1384" y="-602.8" font-family="Helvetica,sans-Serif" font-weight="bold" font-size="9.00" fill="#000000">lib</text>
</g>
<g id="clust19" class="cluster">
<title>cluster_/src/domain/reducers</title>
<path fill="none" stroke="#000000" stroke-width="2" d="M407.7842,-563C407.7842,-563 643.6106,-563 643.6106,-563 649.6106,-563 655.6106,-569 655.6106,-575 655.6106,-575 655.6106,-689 655.6106,-689 655.6106,-695 649.6106,-701 643.6106,-701 643.6106,-701 407.7842,-701 407.7842,-701 401.7842,-701 395.7842,-695 395.7842,-689 395.7842,-689 395.7842,-575 395.7842,-575 395.7842,-569 401.7842,-563 407.7842,-563"/>
<text text-anchor="middle" x="525.6974" y="-689.8" font-family="Helvetica,sans-Serif" font-weight="bold" font-size="9.00" fill="#000000">reducers</text>
</g>
<!-- src/atoms/LoadError/LoadError.jsx -->
<g id="node1" class="node">
<title>src/atoms/LoadError/LoadError.jsx</title>
<g id="a_node1"><a xlink:href="src/atoms/LoadError/LoadError.jsx" xlink:title="LoadError.jsx">
<path fill="#ffffcc" stroke="#000000" d="M616.6986,-49.5C616.6986,-49.5 558.9743,-49.5 558.9743,-49.5 556.1409,-49.5 553.3076,-46.6667 553.3076,-43.8333 553.3076,-43.8333 553.3076,-38.1667 553.3076,-38.1667 553.3076,-35.3333 556.1409,-32.5 558.9743,-32.5 558.9743,-32.5 616.6986,-32.5 616.6986,-32.5 619.5319,-32.5 622.3652,-35.3333 622.3652,-38.1667 622.3652,-38.1667 622.3652,-43.8333 622.3652,-43.8333 622.3652,-46.6667 619.5319,-49.5 616.6986,-49.5"/>
<text text-anchor="middle" x="587.8364" y="-38.3" font-family="Helvetica,sans-Serif" font-size="9.00" fill="#000000">LoadError.jsx</text>
</a>
</g>
</g>
<!-- src/atoms/Loading/Loading.jsx -->
<g id="node2" class="node">
<title>src/atoms/Loading/Loading.jsx</title>
<g id="a_node2"><a xlink:href="src/atoms/Loading/Loading.jsx" xlink:title="Loading.jsx">
<path fill="#ffffcc" stroke="#000000" d="M612.7033,-108.5C612.7033,-108.5 562.9696,-108.5 562.9696,-108.5 560.1363,-108.5 557.3029,-105.6667 557.3029,-102.8333 557.3029,-102.8333 557.3029,-97.1667 557.3029,-97.1667 557.3029,-94.3333 560.1363,-91.5 562.9696,-91.5 562.9696,-91.5 612.7033,-91.5 612.7033,-91.5 615.5366,-91.5 618.3699,-94.3333 618.3699,-97.1667 618.3699,-97.1667 618.3699,-102.8333 618.3699,-102.8333 618.3699,-105.6667 615.5366,-108.5 612.7033,-108.5"/>
<text text-anchor="middle" x="587.8364" y="-97.3" font-family="Helvetica,sans-Serif" font-size="9.00" fill="#000000">Loading.jsx</text>
</a>
</g>
</g>
<!-- src/atoms/ProductCategories/ProductCategories.jsx -->
<g id="node3" class="node">
<title>src/atoms/ProductCategories/ProductCategories.jsx</title>
<g id="a_node3"><a xlink:href="src/atoms/ProductCategories/ProductCategories.jsx" xlink:title="ProductCategories.jsx">
<path fill="#ffffcc" stroke="#000000" d="M634.2098,-167.5C634.2098,-167.5 541.463,-167.5 541.463,-167.5 538.6297,-167.5 535.7964,-164.6667 535.7964,-161.8333 535.7964,-161.8333 535.7964,-156.1667 535.7964,-156.1667 535.7964,-153.3333 538.6297,-150.5 541.463,-150.5 541.463,-150.5 634.2098,-150.5 634.2098,-150.5 637.0431,-150.5 639.8765,-153.3333 639.8765,-156.1667 639.8765,-156.1667 639.8765,-161.8333 639.8765,-161.8333 639.8765,-164.6667 637.0431,-167.5 634.2098,-167.5"/>
<text text-anchor="middle" x="587.8364" y="-156.3" font-family="Helvetica,sans-Serif" font-size="9.00" fill="#000000">ProductCategories.jsx</text>
</a>
</g>
</g>
<!-- src/atoms/ProductCategory/ProductCategory.jsx -->
<g id="node4" class="node">
<title>src/atoms/ProductCategory/ProductCategory.jsx</title>
<g id="a_node4"><a xlink:href="src/atoms/ProductCategory/ProductCategory.jsx" xlink:title="ProductCategory.jsx">
<path fill="#ffffcc" stroke="#000000" d="M774.8441,-167.5C774.8441,-167.5 689.4328,-167.5 689.4328,-167.5 686.5995,-167.5 683.7661,-164.6667 683.7661,-161.8333 683.7661,-161.8333 683.7661,-156.1667 683.7661,-156.1667 683.7661,-153.3333 686.5995,-150.5 689.4328,-150.5 689.4328,-150.5 774.8441,-150.5 774.8441,-150.5 777.6774,-150.5 780.5107,-153.3333 780.5107,-156.1667 780.5107,-156.1667 780.5107,-161.8333 780.5107,-161.8333 780.5107,-164.6667 777.6774,-167.5 774.8441,-167.5"/>
<text text-anchor="middle" x="732.1384" y="-156.3" font-family="Helvetica,sans-Serif" font-size="9.00" fill="#000000">ProductCategory.jsx</text>
</a>
</g>
</g>
<!-- src/atoms/ProductCategories/ProductCategories.jsx&#45;&gt;src/atoms/ProductCategory/ProductCategory.jsx -->
<g id="edge1" class="edge">
<title>src/atoms/ProductCategories/ProductCategories.jsx&#45;&gt;src/atoms/ProductCategory/ProductCategory.jsx</title>
<path fill="none" stroke="#000000" d="M639.9328,-159C650.8111,-159 662.3501,-159 673.4485,-159"/>
<polygon fill="#000000" stroke="#000000" points="673.4856,-162.5001 683.4855,-159 673.4855,-155.5001 673.4856,-162.5001"/>
</g>
<!-- src/atoms/ProductCategory/ProductCategory.scss -->
<g id="node5" class="node">
<title>src/atoms/ProductCategory/ProductCategory.scss</title>
<g id="a_node5"><a xlink:href="src/atoms/ProductCategory/ProductCategory.scss" xlink:title="ProductCategory.scss">
<path fill="#ffffcc" stroke="#000000" d="M914.5584,-167.5C914.5584,-167.5 822.1462,-167.5 822.1462,-167.5 819.3129,-167.5 816.4796,-164.6667 816.4796,-161.8333 816.4796,-161.8333 816.4796,-156.1667 816.4796,-156.1667 816.4796,-153.3333 819.3129,-150.5 822.1462,-150.5 822.1462,-150.5 914.5584,-150.5 914.5584,-150.5 917.3917,-150.5 920.225,-153.3333 920.225,-156.1667 920.225,-156.1667 920.225,-161.8333 920.225,-161.8333 920.225,-164.6667 917.3917,-167.5 914.5584,-167.5"/>
<text text-anchor="middle" x="868.3523" y="-156.3" font-family="Helvetica,sans-Serif" font-size="9.00" fill="#000000">ProductCategory.scss</text>
</a>
</g>
</g>
<!-- src/atoms/ProductCategory/ProductCategory.jsx&#45;&gt;src/atoms/ProductCategory/ProductCategory.scss -->
<g id="edge2" class="edge">
<title>src/atoms/ProductCategory/ProductCategory.jsx&#45;&gt;src/atoms/ProductCategory/ProductCategory.scss</title>
<path fill="none" stroke="#000000" d="M780.5459,-159C788.9,-159 797.6869,-159 806.3414,-159"/>
<polygon fill="#000000" stroke="#000000" points="806.4064,-162.5001 816.4063,-159 806.4063,-155.5001 806.4064,-162.5001"/>
</g>
<!-- src/atoms/ProductFilter/ProductFilter.jsx -->
<g id="node6" class="node">
<title>src/atoms/ProductFilter/ProductFilter.jsx</title>
<g id="a_node6"><a xlink:href="src/atoms/ProductFilter/ProductFilter.jsx" xlink:title="ProductFilter.jsx">
<path fill="#ffffcc" stroke="#000000" d="M622.1937,-344.5C622.1937,-344.5 553.4792,-344.5 553.4792,-344.5 550.6458,-344.5 547.8125,-341.6667 547.8125,-338.8333 547.8125,-338.8333 547.8125,-333.1667 547.8125,-333.1667 547.8125,-330.3333 550.6458,-327.5 553.4792,-327.5 553.4792,-327.5 622.1937,-327.5 622.1937,-327.5 625.027,-327.5 627.8604,-330.3333 627.8604,-333.1667 627.8604,-333.1667 627.8604,-338.8333 627.8604,-338.8333 627.8604,-341.6667 625.027,-344.5 622.1937,-344.5"/>
<text text-anchor="middle" x="587.8364" y="-333.3" font-family="Helvetica,sans-Serif" font-size="9.00" fill="#000000">ProductFilter.jsx</text>
</a>
</g>
</g>
<!-- src/atoms/ProductFilter/ProductFilter.scss -->
<g id="node7" class="node">
<title>src/atoms/ProductFilter/ProductFilter.scss</title>
<g id="a_node7"><a xlink:href="src/atoms/ProductFilter/ProductFilter.scss" xlink:title="ProductFilter.scss">
<path fill="#ffffcc" stroke="#000000" d="M769.9962,-344.5C769.9962,-344.5 694.2807,-344.5 694.2807,-344.5 691.4473,-344.5 688.614,-341.6667 688.614,-338.8333 688.614,-338.8333 688.614,-333.1667 688.614,-333.1667 688.614,-330.3333 691.4473,-327.5 694.2807,-327.5 694.2807,-327.5 769.9962,-327.5 769.9962,-327.5 772.8295,-327.5 775.6628,-330.3333 775.6628,-333.1667 775.6628,-333.1667 775.6628,-338.8333 775.6628,-338.8333 775.6628,-341.6667 772.8295,-344.5 769.9962,-344.5"/>
<text text-anchor="middle" x="732.1384" y="-333.3" font-family="Helvetica,sans-Serif" font-size="9.00" fill="#000000">ProductFilter.scss</text>
</a>
</g>
</g>
<!-- src/atoms/ProductFilter/ProductFilter.jsx&#45;&gt;src/atoms/ProductFilter/ProductFilter.scss -->
<g id="edge3" class="edge">
<title>src/atoms/ProductFilter/ProductFilter.jsx&#45;&gt;src/atoms/ProductFilter/ProductFilter.scss</title>
<path fill="none" stroke="#000000" d="M628.0326,-336C643.6403,-336 661.7481,-336 678.4427,-336"/>
<polygon fill="#000000" stroke="#000000" points="678.6199,-339.5001 688.6198,-336 678.6198,-332.5001 678.6199,-339.5001"/>
</g>
<!-- src/atoms/ProductItem/ProductItem.jsx -->
<g id="node8" class="node">
<title>src/atoms/ProductItem/ProductItem.jsx</title>
<g id="a_node8"><a xlink:href="src/atoms/ProductItem/ProductItem.jsx" xlink:title="ProductItem.jsx">
<path fill="#ffffcc" stroke="#000000" d="M765.4918,-285.5C765.4918,-285.5 698.7851,-285.5 698.7851,-285.5 695.9517,-285.5 693.1184,-282.6667 693.1184,-279.8333 693.1184,-279.8333 693.1184,-274.1667 693.1184,-274.1667 693.1184,-271.3333 695.9517,-268.5 698.7851,-268.5 698.7851,-268.5 765.4918,-268.5 765.4918,-268.5 768.3251,-268.5 771.1584,-271.3333 771.1584,-274.1667 771.1584,-274.1667 771.1584,-279.8333 771.1584,-279.8333 771.1584,-282.6667 768.3251,-285.5 765.4918,-285.5"/>
<text text-anchor="middle" x="732.1384" y="-274.3" font-family="Helvetica,sans-Serif" font-size="9.00" fill="#000000">ProductItem.jsx</text>
</a>
</g>
</g>
<!-- src/atoms/ProductItem/ProductItem.scss -->
<g id="node9" class="node">
<title>src/atoms/ProductItem/ProductItem.scss</title>
<g id="a_node9"><a xlink:href="src/atoms/ProductItem/ProductItem.scss" xlink:title="ProductItem.scss">
<path fill="#ffffcc" stroke="#000000" d="M905.2061,-285.5C905.2061,-285.5 831.4985,-285.5 831.4985,-285.5 828.6651,-285.5 825.8318,-282.6667 825.8318,-279.8333 825.8318,-279.8333 825.8318,-274.1667 825.8318,-274.1667 825.8318,-271.3333 828.6651,-268.5 831.4985,-268.5 831.4985,-268.5 905.2061,-268.5 905.2061,-268.5 908.0395,-268.5 910.8728,-271.3333 910.8728,-274.1667 910.8728,-274.1667 910.8728,-279.8333 910.8728,-279.8333 910.8728,-282.6667 908.0395,-285.5 905.2061,-285.5"/>
<text text-anchor="middle" x="868.3523" y="-274.3" font-family="Helvetica,sans-Serif" font-size="9.00" fill="#000000">ProductItem.scss</text>
</a>
</g>
</g>
<!-- src/atoms/ProductItem/ProductItem.jsx&#45;&gt;src/atoms/ProductItem/ProductItem.scss -->
<g id="edge4" class="edge">
<title>src/atoms/ProductItem/ProductItem.jsx&#45;&gt;src/atoms/ProductItem/ProductItem.scss</title>
<path fill="none" stroke="#000000" d="M771.1719,-277C784.9688,-277 800.7254,-277 815.4771,-277"/>
<polygon fill="#000000" stroke="#000000" points="815.4929,-280.5001 825.4929,-277 815.4929,-273.5001 815.4929,-280.5001"/>
</g>
<!-- src/atoms/ProductList/ProductList.jsx -->
<g id="node10" class="node">
<title>src/atoms/ProductList/ProductList.jsx</title>
<g id="a_node10"><a xlink:href="src/atoms/ProductList/ProductList.jsx" xlink:title="ProductList.jsx">
<path fill="#ffffcc" stroke="#000000" d="M619.1933,-226.5C619.1933,-226.5 556.4796,-226.5 556.4796,-226.5 553.6463,-226.5 550.8129,-223.6667 550.8129,-220.8333 550.8129,-220.8333 550.8129,-215.1667 550.8129,-215.1667 550.8129,-212.3333 553.6463,-209.5 556.4796,-209.5 556.4796,-209.5 619.1933,-209.5 619.1933,-209.5 622.0266,-209.5 624.8599,-212.3333 624.8599,-215.1667 624.8599,-215.1667 624.8599,-220.8333 624.8599,-220.8333 624.8599,-223.6667 622.0266,-226.5 619.1933,-226.5"/>
<text text-anchor="middle" x="587.8364" y="-215.3" font-family="Helvetica,sans-Serif" font-size="9.00" fill="#000000">ProductList.jsx</text>
</a>
</g>
</g>
<!-- src/atoms/ProductList/ProductList.jsx&#45;&gt;src/atoms/ProductItem/ProductItem.jsx -->
<g id="edge5" class="edge">
<title>src/atoms/ProductList/ProductList.jsx&#45;&gt;src/atoms/ProductItem/ProductItem.jsx</title>
<path fill="none" stroke="#000000" d="M603.7909,-226.6251C618.9195,-234.602 642.4224,-246.4772 663.6106,-255 672.9028,-258.7377 683.0943,-262.2917 692.711,-265.4104"/>
<polygon fill="#000000" stroke="#000000" points="691.8729,-268.8161 702.4628,-268.4925 693.9825,-262.1416 691.8729,-268.8161"/>
</g>
<!-- src/atoms/ProductList/ProductList.scss -->
<g id="node11" class="node">
<title>src/atoms/ProductList/ProductList.scss</title>
<g id="a_node11"><a xlink:href="src/atoms/ProductList/ProductList.scss" xlink:title="ProductList.scss">
<path fill="#ffffcc" stroke="#000000" d="M766.9956,-226.5C766.9956,-226.5 697.2812,-226.5 697.2812,-226.5 694.4479,-226.5 691.6146,-223.6667 691.6146,-220.8333 691.6146,-220.8333 691.6146,-215.1667 691.6146,-215.1667 691.6146,-212.3333 694.4479,-209.5 697.2812,-209.5 697.2812,-209.5 766.9956,-209.5 766.9956,-209.5 769.8289,-209.5 772.6623,-212.3333 772.6623,-215.1667 772.6623,-215.1667 772.6623,-220.8333 772.6623,-220.8333 772.6623,-223.6667 769.8289,-226.5 766.9956,-226.5"/>
<text text-anchor="middle" x="732.1384" y="-215.3" font-family="Helvetica,sans-Serif" font-size="9.00" fill="#000000">ProductList.scss</text>
</a>
</g>
</g>
<!-- src/atoms/ProductList/ProductList.jsx&#45;&gt;src/atoms/ProductList/ProductList.scss -->
<g id="edge6" class="edge">
<title>src/atoms/ProductList/ProductList.jsx&#45;&gt;src/atoms/ProductList/ProductList.scss</title>
<path fill="none" stroke="#000000" d="M624.9978,-218C642.1898,-218 662.879,-218 681.4732,-218"/>
<polygon fill="#000000" stroke="#000000" points="681.5523,-221.5001 691.5523,-218 681.5522,-214.5001 681.5523,-221.5001"/>
</g>
<!-- src/components/App/App.jsx -->
<g id="node12" class="node">
<title>src/components/App/App.jsx</title>
<g id="a_node12"><a xlink:href="src/components/App/App.jsx" xlink:title="App.jsx">
<path fill="#ffffcc" stroke="#000000" d="M142.3333,-344.5C142.3333,-344.5 99.6667,-344.5 99.6667,-344.5 96.8333,-344.5 94,-341.6667 94,-338.8333 94,-338.8333 94,-333.1667 94,-333.1667 94,-330.3333 96.8333,-327.5 99.6667,-327.5 99.6667,-327.5 142.3333,-327.5 142.3333,-327.5 145.1667,-327.5 148,-330.3333 148,-333.1667 148,-333.1667 148,-338.8333 148,-338.8333 148,-341.6667 145.1667,-344.5 142.3333,-344.5"/>
<text text-anchor="middle" x="121" y="-333.3" font-family="Helvetica,sans-Serif" font-size="9.00" fill="#000000">App.jsx</text>
</a>
</g>
</g>
<!-- src/components/BoundAppBody/BoundAppBody.jsx -->
<g id="node14" class="node">
<title>src/components/BoundAppBody/BoundAppBody.jsx</title>
<g id="a_node14"><a xlink:href="src/components/BoundAppBody/BoundAppBody.jsx" xlink:title="BoundAppBody.jsx">
<path fill="#ffffcc" stroke="#000000" d="M257.9164,-256.5C257.9164,-256.5 177.4717,-256.5 177.4717,-256.5 174.6384,-256.5 171.8051,-253.6667 171.8051,-250.8333 171.8051,-250.8333 171.8051,-245.1667 171.8051,-245.1667 171.8051,-242.3333 174.6384,-239.5 177.4717,-239.5 177.4717,-239.5 257.9164,-239.5 257.9164,-239.5 260.7498,-239.5 263.5831,-242.3333 263.5831,-245.1667 263.5831,-245.1667 263.5831,-250.8333 263.5831,-250.8333 263.5831,-253.6667 260.7498,-256.5 257.9164,-256.5"/>
<text text-anchor="middle" x="217.6941" y="-245.3" font-family="Helvetica,sans-Serif" font-size="9.00" fill="#000000">BoundAppBody.jsx</text>
</a>
</g>
</g>
<!-- src/components/App/App.jsx&#45;&gt;src/components/BoundAppBody/BoundAppBody.jsx -->
<g id="edge8" class="edge">
<title>src/components/App/App.jsx&#45;&gt;src/components/BoundAppBody/BoundAppBody.jsx</title>
<path fill="none" stroke="#000000" d="M130.6249,-327.2405C146.9148,-312.4153 180.1305,-282.1861 200.4987,-263.6493"/>
<polygon fill="#000000" stroke="#000000" points="203.0681,-266.0434 208.1081,-256.7241 198.3566,-260.8663 203.0681,-266.0434"/>
</g>
<!-- src/domain/store.js -->
<g id="node32" class="node">
<title>src/domain/store.js</title>
<g id="a_node32"><a xlink:href="src/domain/store.js" xlink:title="store.js">
<path fill="#ffffcc" stroke="#000000" d="M330.4034,-522.5C330.4034,-522.5 287.7367,-522.5 287.7367,-522.5 284.9034,-522.5 282.0701,-519.6667 282.0701,-516.8333 282.0701,-516.8333 282.0701,-511.1667 282.0701,-511.1667 282.0701,-508.3333 284.9034,-505.5 287.7367,-505.5 287.7367,-505.5 330.4034,-505.5 330.4034,-505.5 333.2367,-505.5 336.0701,-508.3333 336.0701,-511.1667 336.0701,-511.1667 336.0701,-516.8333 336.0701,-516.8333 336.0701,-519.6667 333.2367,-522.5 330.4034,-522.5"/>
<text text-anchor="middle" x="309.0701" y="-511.3" font-family="Helvetica,sans-Serif" font-size="9.00" fill="#000000">store.js</text>
</a>
</g>
</g>
<!-- src/components/App/App.jsx&#45;&gt;src/domain/store.js -->
<g id="edge7" class="edge">
<title>src/components/App/App.jsx&#45;&gt;src/domain/store.js</title>
<path fill="none" stroke="#000000" d="M146.5574,-344.6465C149.7898,-345.9853 153.0095,-347.445 156,-349 207.4258,-375.7402 225.3284,-379.2838 263.3882,-423 282.4862,-444.9364 295.9052,-476.2645 303.0562,-495.8511"/>
<polygon fill="#000000" stroke="#000000" points="299.7846,-497.0991 306.3804,-505.3904 306.3947,-494.7955 299.7846,-497.0991"/>
</g>
<!-- src/components/BoundAppBody/AppBody.jsx -->
<g id="node13" class="node">
<title>src/components/BoundAppBody/AppBody.jsx</title>
<g id="a_node13"><a xlink:href="src/components/BoundAppBody/AppBody.jsx" xlink:title="AppBody.jsx">
<path fill="#ffffcc" stroke="#000000" d="M336.2682,-256.5C336.2682,-256.5 281.8719,-256.5 281.8719,-256.5 279.0386,-256.5 276.2053,-253.6667 276.2053,-250.8333 276.2053,-250.8333 276.2053,-245.1667 276.2053,-245.1667 276.2053,-242.3333 279.0386,-239.5 281.8719,-239.5 281.8719,-239.5 336.2682,-239.5 336.2682,-239.5 339.1015,-239.5 341.9349,-242.3333 341.9349,-245.1667 341.9349,-245.1667 341.9349,-250.8333 341.9349,-250.8333 341.9349,-253.6667 339.1015,-256.5 336.2682,-256.5"/>
<text text-anchor="middle" x="309.0701" y="-245.3" font-family="Helvetica,sans-Serif" font-size="9.00" fill="#000000">AppBody.jsx</text>
</a>
</g>
</g>
<!-- src/components/BoundAppBody/AppBody.jsx&#45;&gt;src/atoms/LoadError/LoadError.jsx -->
<g id="edge9" class="edge">
<title>src/components/BoundAppBody/AppBody.jsx&#45;&gt;src/atoms/LoadError/LoadError.jsx</title>
<path fill="none" stroke="#000000" d="M309.948,-239.3078C312.6858,-216.7283 323.0804,-155.6399 357.752,-122 408.7919,-72.4787 491.8769,-53.0723 543.0023,-45.5807"/>
<polygon fill="#000000" stroke="#000000" points="543.6616,-49.0231 553.0929,-44.196 542.7099,-42.0881 543.6616,-49.0231"/>
</g>
<!-- src/components/BoundAppBody/AppBody.jsx&#45;&gt;src/atoms/Loading/Loading.jsx -->
<g id="edge10" class="edge">
<title>src/components/BoundAppBody/AppBody.jsx&#45;&gt;src/atoms/Loading/Loading.jsx</title>
<path fill="none" stroke="#000000" d="M315.8021,-239.1873C324.4949,-228.3004 340.5615,-209.7785 357.752,-198 418.7769,-156.1872 500.4891,-126.6217 548.3203,-111.5223"/>
<polygon fill="#000000" stroke="#000000" points="549.4797,-114.8272 557.993,-108.5206 547.405,-108.1417 549.4797,-114.8272"/>
</g>
<!-- src/components/BoundProductCategories/BoundProductCategories.jsx -->
<g id="node15" class="node">
<title>src/components/BoundProductCategories/BoundProductCategories.jsx</title>
<g id="a_node15"><a xlink:href="src/components/BoundProductCategories/BoundProductCategories.jsx" xlink:title="BoundProductCategories.jsx">
<path fill="#ffffcc" stroke="#000000" d="M490.182,-226.5C490.182,-226.5 371.3864,-226.5 371.3864,-226.5 368.553,-226.5 365.7197,-223.6667 365.7197,-220.8333 365.7197,-220.8333 365.7197,-215.1667 365.7197,-215.1667 365.7197,-212.3333 368.553,-209.5 371.3864,-209.5 371.3864,-209.5 490.182,-209.5 490.182,-209.5 493.0153,-209.5 495.8486,-212.3333 495.8486,-215.1667 495.8486,-215.1667 495.8486,-220.8333 495.8486,-220.8333 495.8486,-223.6667 493.0153,-226.5 490.182,-226.5"/>
<text text-anchor="middle" x="430.7842" y="-215.3" font-family="Helvetica,sans-Serif" font-size="9.00" fill="#000000">BoundProductCategories.jsx</text>
</a>
</g>
</g>
<!-- src/components/BoundAppBody/AppBody.jsx&#45;&gt;src/components/BoundProductCategories/BoundProductCategories.jsx -->
<g id="edge11" class="edge">
<title>src/components/BoundAppBody/AppBody.jsx&#45;&gt;src/components/BoundProductCategories/BoundProductCategories.jsx</title>
<path fill="none" stroke="#000000" d="M342.0077,-239.8816C355.6218,-236.526 371.6158,-232.5838 386.2501,-228.9767"/>
<polygon fill="#000000" stroke="#000000" points="387.2465,-232.336 396.1183,-226.5444 385.5712,-225.5394 387.2465,-232.336"/>
</g>
<!-- src/components/BoundProductFilter/BoundProductFilter.jsx -->
<g id="node16" class="node">
<title>src/components/BoundProductFilter/BoundProductFilter.jsx</title>
<g id="a_node16"><a xlink:href="src/components/BoundProductFilter/BoundProductFilter.jsx" xlink:title="BoundProductFilter.jsx">
<path fill="#ffffcc" stroke="#000000" d="M478.1659,-344.5C478.1659,-344.5 383.4025,-344.5 383.4025,-344.5 380.5692,-344.5 377.7358,-341.6667 377.7358,-338.8333 377.7358,-338.8333 377.7358,-333.1667 377.7358,-333.1667 377.7358,-330.3333 380.5692,-327.5 383.4025,-327.5 383.4025,-327.5 478.1659,-327.5 478.1659,-327.5 480.9992,-327.5 483.8325,-330.3333 483.8325,-333.1667 483.8325,-333.1667 483.8325,-338.8333 483.8325,-338.8333 483.8325,-341.6667 480.9992,-344.5 478.1659,-344.5"/>
<text text-anchor="middle" x="430.7842" y="-333.3" font-family="Helvetica,sans-Serif" font-size="9.00" fill="#000000">BoundProductFilter.jsx</text>
</a>
</g>
</g>
<!-- src/components/BoundAppBody/AppBody.jsx&#45;&gt;src/components/BoundProductFilter/BoundProductFilter.jsx -->
<g id="edge12" class="edge">
<title>src/components/BoundAppBody/AppBody.jsx&#45;&gt;src/components/BoundProductFilter/BoundProductFilter.jsx</title>
<path fill="none" stroke="#000000" d="M313.1436,-256.6833C320.215,-270.8157 336.1051,-298.7435 357.752,-314 363.3516,-317.9466 369.6706,-321.1965 376.1895,-323.8702"/>
<polygon fill="#000000" stroke="#000000" points="375.2292,-327.2455 385.823,-327.3892 377.631,-320.6705 375.2292,-327.2455"/>
</g>
<!-- src/components/BoundProductList/BoundProductList.jsx -->
<g id="node17" class="node">
<title>src/components/BoundProductList/BoundProductList.jsx</title>
<g id="a_node17"><a xlink:href="src/components/BoundProductList/BoundProductList.jsx" xlink:title="BoundProductList.jsx">
<path fill="#ffffcc" stroke="#000000" d="M475.1649,-285.5C475.1649,-285.5 386.4034,-285.5 386.4034,-285.5 383.5701,-285.5 380.7368,-282.6667 380.7368,-279.8333 380.7368,-279.8333 380.7368,-274.1667 380.7368,-274.1667 380.7368,-271.3333 383.5701,-268.5 386.4034,-268.5 386.4034,-268.5 475.1649,-268.5 475.1649,-268.5 477.9983,-268.5 480.8316,-271.3333 480.8316,-274.1667 480.8316,-274.1667 480.8316,-279.8333 480.8316,-279.8333 480.8316,-282.6667 477.9983,-285.5 475.1649,-285.5"/>
<text text-anchor="middle" x="430.7842" y="-274.3" font-family="Helvetica,sans-Serif" font-size="9.00" fill="#000000">BoundProductList.jsx</text>
</a>
</g>
</g>
<!-- src/components/BoundAppBody/AppBody.jsx&#45;&gt;src/components/BoundProductList/BoundProductList.jsx -->
<g id="edge13" class="edge">
<title>src/components/BoundAppBody/AppBody.jsx&#45;&gt;src/components/BoundProductList/BoundProductList.jsx</title>
<path fill="none" stroke="#000000" d="M342.0077,-255.8478C355.151,-258.9794 370.5124,-262.6395 384.7271,-266.0263"/>
<polygon fill="#000000" stroke="#000000" points="384.2878,-269.5195 394.8267,-268.4327 385.9103,-262.7101 384.2878,-269.5195"/>
</g>
<!-- src/components/BoundAppBody/BoundAppBody.jsx&#45;&gt;src/components/BoundAppBody/AppBody.jsx -->
<g id="edge14" class="edge">
<title>src/components/BoundAppBody/BoundAppBody.jsx&#45;&gt;src/components/BoundAppBody/AppBody.jsx</title>
<path fill="none" stroke="#000000" d="M263.6498,-248C264.4497,-248 265.2496,-248 266.0484,-248"/>
<polygon fill="#000000" stroke="#000000" points="266.291,-251.5001 276.291,-248 266.2909,-244.5001 266.291,-251.5001"/>
</g>
<!-- src/components/BoundProductCategories/BoundProductCategories.jsx&#45;&gt;src/atoms/ProductCategories/ProductCategories.jsx -->
<g id="edge15" class="edge">
<title>src/components/BoundProductCategories/BoundProductCategories.jsx&#45;&gt;src/atoms/ProductCategories/ProductCategories.jsx</title>
<path fill="none" stroke="#000000" d="M453.6209,-209.4209C480.3728,-199.371 524.8906,-182.6469 555.261,-171.2376"/>
<polygon fill="#000000" stroke="#000000" points="556.8418,-174.3827 564.9721,-167.5895 554.38,-167.8298 556.8418,-174.3827"/>
</g>
<!-- src/domain/actions/actionSelectCategory.js -->
<g id="node19" class="node">
<title>src/domain/actions/actionSelectCategory.js</title>
<g id="a_node19"><a xlink:href="src/domain/actions/actionSelectCategory.js" xlink:title="actionSelectCategory.js">
<path fill="#ffffcc" stroke="#000000" d="M637.0546,-436.5C637.0546,-436.5 538.6183,-436.5 538.6183,-436.5 535.7849,-436.5 532.9516,-433.6667 532.9516,-430.8333 532.9516,-430.8333 532.9516,-425.1667 532.9516,-425.1667 532.9516,-422.3333 535.7849,-419.5 538.6183,-419.5 538.6183,-419.5 637.0546,-419.5 637.0546,-419.5 639.8879,-419.5 642.7213,-422.3333 642.7213,-425.1667 642.7213,-425.1667 642.7213,-430.8333 642.7213,-430.8333 642.7213,-433.6667 639.8879,-436.5 637.0546,-436.5"/>
<text text-anchor="middle" x="587.8364" y="-425.3" font-family="Helvetica,sans-Serif" font-size="9.00" fill="#000000">actionSelectCategory.js</text>
</a>
</g>
</g>
<!-- src/components/BoundProductCategories/BoundProductCategories.jsx&#45;&gt;src/domain/actions/actionSelectCategory.js -->
<g id="edge16" class="edge">
<title>src/components/BoundProductCategories/BoundProductCategories.jsx&#45;&gt;src/domain/actions/actionSelectCategory.js</title>
<path fill="none" stroke="#000000" d="M467.4474,-226.6328C483.7631,-232.4321 501.5695,-241.8779 511.8164,-257 526.311,-278.3907 507.8879,-350.0791 519.8164,-373 528.9896,-390.6265 546.5548,-404.6026 561.5372,-414.0553"/>
<polygon fill="#000000" stroke="#000000" points="560.0504,-417.2433 570.434,-419.3485 563.6296,-411.2275 560.0504,-417.2433"/>
</g>
<!-- src/components/BoundProductFilter/BoundProductFilter.jsx&#45;&gt;src/atoms/ProductFilter/ProductFilter.jsx -->
<g id="edge17" class="edge">
<title>src/components/BoundProductFilter/BoundProductFilter.jsx&#45;&gt;src/atoms/ProductFilter/ProductFilter.jsx</title>
<path fill="none" stroke="#000000" d="M483.9549,-336C501.1992,-336 520.2709,-336 537.3166,-336"/>
<polygon fill="#000000" stroke="#000000" points="537.6338,-339.5001 547.6337,-336 537.6337,-332.5001 537.6338,-339.5001"/>
</g>
<!-- src/domain/actions/actionSetProductFilter.js -->
<g id="node20" class="node">
<title>src/domain/actions/actionSetProductFilter.js</title>
<g id="a_node20"><a xlink:href="src/domain/actions/actionSetProductFilter.js" xlink:title="actionSetProductFilter.js">
<path fill="#ffffcc" stroke="#000000" d="M638.7186,-494.5C638.7186,-494.5 536.9543,-494.5 536.9543,-494.5 534.1209,-494.5 531.2876,-491.6667 531.2876,-488.8333 531.2876,-488.8333 531.2876,-483.1667 531.2876,-483.1667 531.2876,-480.3333 534.1209,-477.5 536.9543,-477.5 536.9543,-477.5 638.7186,-477.5 638.7186,-477.5 641.5519,-477.5 644.3853,-480.3333 644.3853,-483.1667 644.3853,-483.1667 644.3853,-488.8333 644.3853,-488.8333 644.3853,-491.6667 641.5519,-494.5 638.7186,-494.5"/>
<text text-anchor="middle" x="587.8364" y="-483.3" font-family="Helvetica,sans-Serif" font-size="9.00" fill="#000000">actionSetProductFilter.js</text>
</a>
</g>
</g>
<!-- src/components/BoundProductFilter/BoundProductFilter.jsx&#45;&gt;src/domain/actions/actionSetProductFilter.js -->
<g id="edge18" class="edge">
<title>src/components/BoundProductFilter/BoundProductFilter.jsx&#45;&gt;src/domain/actions/actionSetProductFilter.js</title>
<path fill="none" stroke="#000000" d="M433.7529,-344.7159C442.5646,-369.1772 471.04,-438.8394 519.8164,-472 520.5798,-472.519 521.3583,-473.0194 522.1505,-473.502"/>
<polygon fill="#000000" stroke="#000000" points="520.5816,-476.6307 531.0852,-478.0178 523.7391,-470.3833 520.5816,-476.6307"/>
</g>
<!-- src/components/BoundProductList/BoundProductList.jsx&#45;&gt;src/atoms/ProductList/ProductList.jsx -->
<g id="edge19" class="edge">
<title>src/components/BoundProductList/BoundProductList.jsx&#45;&gt;src/atoms/ProductList/ProductList.jsx</title>
<path fill="none" stroke="#000000" d="M467.9558,-268.4717C481.896,-264.8675 497.7591,-260.2757 511.8164,-255 529.6276,-248.3154 548.8896,-238.9154 563.5678,-231.263"/>
<polygon fill="#000000" stroke="#000000" points="565.2946,-234.309 572.4903,-226.5327 562.0157,-228.1244 565.2946,-234.309"/>
</g>
<!-- src/domain/actions/actionToggleProduct.js -->
<g id="node21" class="node">
<title>src/domain/actions/actionToggleProduct.js</title>
<g id="a_node21"><a xlink:href="src/domain/actions/actionToggleProduct.js" xlink:title="actionToggleProduct.js">
<path fill="#ffffcc" stroke="#000000" d="M635.2244,-465.5C635.2244,-465.5 540.4485,-465.5 540.4485,-465.5 537.6151,-465.5 534.7818,-462.6667 534.7818,-459.8333 534.7818,-459.8333 534.7818,-454.1667 534.7818,-454.1667 534.7818,-451.3333 537.6151,-448.5 540.4485,-448.5 540.4485,-448.5 635.2244,-448.5 635.2244,-448.5 638.0577,-448.5 640.8911,-451.3333 640.8911,-454.1667 640.8911,-454.1667 640.8911,-459.8333 640.8911,-459.8333 640.8911,-462.6667 638.0577,-465.5 635.2244,-465.5"/>
<text text-anchor="middle" x="587.8364" y="-454.3" font-family="Helvetica,sans-Serif" font-size="9.00" fill="#000000">actionToggleProduct.js</text>
</a>
</g>
</g>
<!-- src/components/BoundProductList/BoundProductList.jsx&#45;&gt;src/domain/actions/actionToggleProduct.js -->
<g id="edge20" class="edge">
<title>src/components/BoundProductList/BoundProductList.jsx&#45;&gt;src/domain/actions/actionToggleProduct.js</title>
<path fill="none" stroke="#000000" d="M467.4872,-285.6059C483.812,-291.3991 501.6145,-300.8475 511.8164,-316 527.6096,-339.457 501.2691,-421.654 519.8164,-443 521.5808,-445.0307 523.5544,-446.8137 525.6873,-448.3768"/>
<polygon fill="#000000" stroke="#000000" points="524.164,-451.5354 534.598,-453.3746 527.5883,-445.4301 524.164,-451.5354"/>
</g>
<!-- src/domain/actionTypes.js -->
<g id="node18" class="node">
<title>src/domain/actionTypes.js</title>
<g id="a_node18"><a xlink:href="src/domain/actionTypes.js" xlink:title="actionTypes.js">
<path fill="#ffffcc" stroke="#000000" d="M763.004,-494.5C763.004,-494.5 701.2729,-494.5 701.2729,-494.5 698.4395,-494.5 695.6062,-491.6667 695.6062,-488.8333 695.6062,-488.8333 695.6062,-483.1667 695.6062,-483.1667 695.6062,-480.3333 698.4395,-477.5 701.2729,-477.5 701.2729,-477.5 763.004,-477.5 763.004,-477.5 765.8373,-477.5 768.6707,-480.3333 768.6707,-483.1667 768.6707,-483.1667 768.6707,-488.8333 768.6707,-488.8333 768.6707,-491.6667 765.8373,-494.5 763.004,-494.5"/>
<text text-anchor="middle" x="732.1384" y="-483.3" font-family="Helvetica,sans-Serif" font-size="9.00" fill="#000000">actionTypes.js</text>
</a>
</g>
</g>
<!-- src/domain/actions/actionSelectCategory.js&#45;&gt;src/domain/actionTypes.js -->
<g id="edge21" class="edge">
<title>src/domain/actions/actionSelectCategory.js&#45;&gt;src/domain/actionTypes.js</title>
<path fill="none" stroke="#000000" d="M635.0323,-436.5631C642.0314,-438.372 649.0811,-440.5059 655.6106,-443 675.4172,-450.5655 696.2979,-462.6078 711.2354,-472.0266"/>
<polygon fill="#000000" stroke="#000000" points="709.4044,-475.0105 719.7054,-477.4886 713.1981,-469.1276 709.4044,-475.0105"/>
</g>
<!-- src/domain/actions/actionSetProductFilter.js&#45;&gt;src/domain/actionTypes.js -->
<g id="edge22" class="edge">
<title>src/domain/actions/actionSetProductFilter.js&#45;&gt;src/domain/actionTypes.js</title>
<path fill="none" stroke="#000000" d="M644.4542,-486C657.9118,-486 672.1263,-486 685.1024,-486"/>
<polygon fill="#000000" stroke="#000000" points="685.2055,-489.5001 695.2054,-486 685.2054,-482.5001 685.2055,-489.5001"/>
</g>
<!-- src/domain/actions/actionToggleProduct.js&#45;&gt;src/domain/actionTypes.js -->
<g id="edge23" class="edge">
<title>src/domain/actions/actionToggleProduct.js&#45;&gt;src/domain/actionTypes.js</title>
<path fill="none" stroke="#000000" d="M630.3513,-465.5441C647.5864,-469.0078 667.5522,-473.0203 685.2118,-476.5693"/>
<polygon fill="#000000" stroke="#000000" points="684.8112,-480.0587 695.3048,-478.5976 686.1905,-473.1959 684.8112,-480.0587"/>
</g>
<!-- src/domain/actions/actionsLoad.js -->
<g id="node22" class="node">
<title>src/domain/actions/actionsLoad.js</title>
<g id="a_node22"><a xlink:href="src/domain/actions/actionsLoad.js" xlink:title="actionsLoad.js">
<path fill="#ffffcc" stroke="#000000" d="M618.7088,-523.5C618.7088,-523.5 556.9641,-523.5 556.9641,-523.5 554.1307,-523.5 551.2974,-520.6667 551.2974,-517.8333 551.2974,-517.8333 551.2974,-512.1667 551.2974,-512.1667 551.2974,-509.3333 554.1307,-506.5 556.9641,-506.5 556.9641,-506.5 618.7088,-506.5 618.7088,-506.5 621.5421,-506.5 624.3755,-509.3333 624.3755,-512.1667 624.3755,-512.1667 624.3755,-517.8333 624.3755,-517.8333 624.3755,-520.6667 621.5421,-523.5 618.7088,-523.5"/>
<text text-anchor="middle" x="587.8364" y="-512.3" font-family="Helvetica,sans-Serif" font-size="9.00" fill="#000000">actionsLoad.js</text>
</a>
</g>
</g>
<!-- src/domain/actions/actionsLoad.js&#45;&gt;src/domain/actionTypes.js -->
<g id="edge24" class="edge">
<title>src/domain/actions/actionsLoad.js&#45;&gt;src/domain/actionTypes.js</title>
<path fill="none" stroke="#000000" d="M624.6233,-507.607C643.1112,-503.8916 665.7147,-499.349 685.4172,-495.3894"/>
<polygon fill="#000000" stroke="#000000" points="686.3044,-498.7812 695.4187,-493.3795 684.9251,-491.9184 686.3044,-498.7812"/>
</g>
<!-- src/domain/lib/apis.js -->
<g id="node24" class="node">
<title>src/domain/lib/apis.js</title>
<g id="a_node24"><a xlink:href="src/domain/lib/apis.js" xlink:title="apis.js">
<path fill="#ffffcc" stroke="#000000" d="M753.4718,-530.5C753.4718,-530.5 710.8051,-530.5 710.8051,-530.5 707.9718,-530.5 705.1384,-527.6667 705.1384,-524.8333 705.1384,-524.8333 705.1384,-519.1667 705.1384,-519.1667 705.1384,-516.3333 707.9718,-513.5 710.8051,-513.5 710.8051,-513.5 753.4718,-513.5 753.4718,-513.5 756.3051,-513.5 759.1384,-516.3333 759.1384,-519.1667 759.1384,-519.1667 759.1384,-524.8333 759.1384,-524.8333 759.1384,-527.6667 756.3051,-530.5 753.4718,-530.5"/>
<text text-anchor="middle" x="732.1384" y="-519.3" font-family="Helvetica,sans-Serif" font-size="9.00" fill="#000000">apis.js</text>
</a>
</g>
</g>
<!-- src/domain/actions/actionsLoad.js&#45;&gt;src/domain/lib/apis.js -->
<g id="edge25" class="edge">
<title>src/domain/actions/actionsLoad.js&#45;&gt;src/domain/lib/apis.js</title>
<path fill="none" stroke="#000000" d="M624.6233,-516.7845C646.1512,-517.8288 673.2595,-519.1438 694.8699,-520.1921"/>
<polygon fill="#000000" stroke="#000000" points="694.8305,-523.6942 704.9884,-520.683 695.1697,-516.7025 694.8305,-523.6942"/>
</g>
<!-- src/domain/lib/buildProductsShowcase.js -->
<g id="node25" class="node">
<title>src/domain/lib/buildProductsShowcase.js</title>
<g id="a_node25"><a xlink:href="src/domain/lib/buildProductsShowcase.js" xlink:title="buildProductsShowcase.js">
<path fill="#ffffcc" stroke="#000000" d="M787.0274,-559.5C787.0274,-559.5 677.2494,-559.5 677.2494,-559.5 674.4161,-559.5 671.5828,-556.6667 671.5828,-553.8333 671.5828,-553.8333 671.5828,-548.1667 671.5828,-548.1667 671.5828,-545.3333 674.4161,-542.5 677.2494,-542.5 677.2494,-542.5 787.0274,-542.5 787.0274,-542.5 789.8608,-542.5 792.6941,-545.3333 792.6941,-548.1667 792.6941,-548.1667 792.6941,-553.8333 792.6941,-553.8333 792.6941,-556.6667 789.8608,-559.5 787.0274,-559.5"/>
<text text-anchor="middle" x="732.1384" y="-548.3" font-family="Helvetica,sans-Serif" font-size="9.00" fill="#000000">buildProductsShowcase.js</text>
</a>
</g>
</g>
<!-- src/domain/actions/actionsLoad.js&#45;&gt;src/domain/lib/buildProductsShowcase.js -->
<g id="edge26" class="edge">
<title>src/domain/actions/actionsLoad.js&#45;&gt;src/domain/lib/buildProductsShowcase.js</title>
<path fill="none" stroke="#000000" d="M615.4032,-523.587C629.7103,-527.895 647.5186,-533.0271 663.6106,-537 668.2304,-538.1406 673.0416,-539.26 677.8774,-540.338"/>
<polygon fill="#000000" stroke="#000000" points="677.2698,-543.7876 687.7844,-542.4862 678.7532,-536.9465 677.2698,-543.7876"/>
</g>
<!-- src/domain/getDefaultState.js -->
<g id="node23" class="node">
<title>src/domain/getDefaultState.js</title>
<g id="a_node23"><a xlink:href="src/domain/getDefaultState.js" xlink:title="getDefaultState.js">
<path fill="#ffffcc" stroke="#000000" d="M770.0138,-646.5C770.0138,-646.5 694.2631,-646.5 694.2631,-646.5 691.4298,-646.5 688.5964,-643.6667 688.5964,-640.8333 688.5964,-640.8333 688.5964,-635.1667 688.5964,-635.1667 688.5964,-632.3333 691.4298,-629.5 694.2631,-629.5 694.2631,-629.5 770.0138,-629.5 770.0138,-629.5 772.8471,-629.5 775.6804,-632.3333 775.6804,-635.1667 775.6804,-635.1667 775.6804,-640.8333 775.6804,-640.8333 775.6804,-643.6667 772.8471,-646.5 770.0138,-646.5"/>
<text text-anchor="middle" x="732.1384" y="-635.3" font-family="Helvetica,sans-Serif" font-size="9.00" fill="#000000">getDefaultState.js</text>
</a>
</g>
</g>
<!-- src/domain/lib/getFilteredProducts.js -->
<g id="node26" class="node">
<title>src/domain/lib/getFilteredProducts.js</title>
<g id="a_node26"><a xlink:href="src/domain/lib/getFilteredProducts.js" xlink:title="getFilteredProducts.js">
<path fill="#ffffcc" stroke="#000000" d="M778.0099,-588.5C778.0099,-588.5 686.267,-588.5 686.267,-588.5 683.4337,-588.5 680.6003,-585.6667 680.6003,-582.8333 680.6003,-582.8333 680.6003,-577.1667 680.6003,-577.1667 680.6003,-574.3333 683.4337,-571.5 686.267,-571.5 686.267,-571.5 778.0099,-571.5 778.0099,-571.5 780.8432,-571.5 783.6765,-574.3333 783.6765,-577.1667 783.6765,-577.1667 783.6765,-582.8333 783.6765,-582.8333 783.6765,-585.6667 780.8432,-588.5 778.0099,-588.5"/>
<text text-anchor="middle" x="732.1384" y="-577.3" font-family="Helvetica,sans-Serif" font-size="9.00" fill="#000000">getFilteredProducts.js</text>
</a>
</g>
</g>
<!-- src/domain/reducers/index.js -->
<g id="node27" class="node">
<title>src/domain/reducers/index.js</title>
<g id="a_node27"><a xlink:href="src/domain/reducers/index.js" xlink:title="index.js">
<path fill="#ffffcc" stroke="#000000" d="M452.1175,-617.5C452.1175,-617.5 409.4508,-617.5 409.4508,-617.5 406.6175,-617.5 403.7842,-614.6667 403.7842,-611.8333 403.7842,-611.8333 403.7842,-606.1667 403.7842,-606.1667 403.7842,-603.3333 406.6175,-600.5 409.4508,-600.5 409.4508,-600.5 452.1175,-600.5 452.1175,-600.5 454.9508,-600.5 457.7842,-603.3333 457.7842,-606.1667 457.7842,-606.1667 457.7842,-611.8333 457.7842,-611.8333 457.7842,-614.6667 454.9508,-617.5 452.1175,-617.5"/>
<text text-anchor="middle" x="430.7842" y="-606.3" font-family="Helvetica,sans-Serif" font-size="9.00" fill="#000000">index.js</text>
</a>
</g>
</g>
<!-- src/domain/reducers/index.js&#45;&gt;src/domain/actionTypes.js -->
<g id="edge27" class="edge">
<title>src/domain/reducers/index.js&#45;&gt;src/domain/actionTypes.js</title>
<path fill="none" stroke="#000000" d="M444.6716,-600.3977C461.6928,-590.3112 491.7424,-573.9615 519.8164,-566 549.0019,-557.7233 633.5682,-572.843 655.6106,-552 671.9626,-536.5378 648.2698,-518.466 663.6106,-502 669.4767,-495.7037 677.3026,-491.6609 685.5658,-489.1082"/>
<polygon fill="#000000" stroke="#000000" points="686.4707,-492.4905 695.3758,-486.7503 684.8347,-485.6844 686.4707,-492.4905"/>
</g>
<!-- src/domain/reducers/index.js&#45;&gt;src/domain/getDefaultState.js -->
<g id="edge28" class="edge">
<title>src/domain/reducers/index.js&#45;&gt;src/domain/getDefaultState.js</title>
<path fill="none" stroke="#000000" d="M437.9197,-617.9836C451.6671,-634.477 483.6791,-669.079 519.8164,-682 576.646,-702.3195 597.3001,-697.5681 655.6106,-682 676.9464,-676.3036 698.5092,-663.0799 713.2839,-652.6072"/>
<polygon fill="#000000" stroke="#000000" points="715.5603,-655.2777 721.5433,-646.5339 711.4135,-649.6382 715.5603,-655.2777"/>
</g>
<!-- src/domain/reducers/reducerSelectCategory.js -->
<g id="node28" class="node">
<title>src/domain/reducers/reducerSelectCategory.js</title>
<g id="a_node28"><a xlink:href="src/domain/reducers/reducerSelectCategory.js" xlink:title="reducerSelectCategory.js">
<path fill="#ffffcc" stroke="#000000" d="M640.5547,-588.5C640.5547,-588.5 535.1182,-588.5 535.1182,-588.5 532.2848,-588.5 529.4515,-585.6667 529.4515,-582.8333 529.4515,-582.8333 529.4515,-577.1667 529.4515,-577.1667 529.4515,-574.3333 532.2848,-571.5 535.1182,-571.5 535.1182,-571.5 640.5547,-571.5 640.5547,-571.5 643.388,-571.5 646.2213,-574.3333 646.2213,-577.1667 646.2213,-577.1667 646.2213,-582.8333 646.2213,-582.8333 646.2213,-585.6667 643.388,-588.5 640.5547,-588.5"/>
<text text-anchor="middle" x="587.8364" y="-577.3" font-family="Helvetica,sans-Serif" font-size="9.00" fill="#000000">reducerSelectCategory.js</text>
</a>
</g>
</g>
<!-- src/domain/reducers/index.js&#45;&gt;src/domain/reducers/reducerSelectCategory.js -->
<g id="edge29" class="edge">
<title>src/domain/reducers/index.js&#45;&gt;src/domain/reducers/reducerSelectCategory.js</title>
<path fill="none" stroke="#000000" d="M458.1406,-603.9486C478.3779,-600.2117 506.6462,-594.9919 531.628,-590.379"/>
<polygon fill="#000000" stroke="#000000" points="532.5389,-593.7701 541.7371,-588.5123 531.2677,-586.8864 532.5389,-593.7701"/>
</g>
<!-- src/domain/reducers/reducerSetProductFilter.js -->
<g id="node29" class="node">
<title>src/domain/reducers/reducerSetProductFilter.js</title>
<g id="a_node29"><a xlink:href="src/domain/reducers/reducerSetProductFilter.js" xlink:title="reducerSetProductFilter.js">
<path fill="#ffffcc" stroke="#000000" d="M641.7189,-617.5C641.7189,-617.5 533.9539,-617.5 533.9539,-617.5 531.1206,-617.5 528.2872,-614.6667 528.2872,-611.8333 528.2872,-611.8333 528.2872,-606.1667 528.2872,-606.1667 528.2872,-603.3333 531.1206,-600.5 533.9539,-600.5 533.9539,-600.5 641.7189,-600.5 641.7189,-600.5 644.5523,-600.5 647.3856,-603.3333 647.3856,-606.1667 647.3856,-606.1667 647.3856,-611.8333 647.3856,-611.8333 647.3856,-614.6667 644.5523,-617.5 641.7189,-617.5"/>
<text text-anchor="middle" x="587.8364" y="-606.3" font-family="Helvetica,sans-Serif" font-size="9.00" fill="#000000">reducerSetProductFilter.js</text>
</a>
</g>
</g>
<!-- src/domain/reducers/index.js&#45;&gt;src/domain/reducers/reducerSetProductFilter.js -->
<g id="edge30" class="edge">
<title>src/domain/reducers/index.js&#45;&gt;src/domain/reducers/reducerSetProductFilter.js</title>
<path fill="none" stroke="#000000" d="M458.1406,-609C474.8317,-609 496.9857,-609 518.2532,-609"/>
<polygon fill="#000000" stroke="#000000" points="518.2658,-612.5001 528.2658,-609 518.2657,-605.5001 518.2658,-612.5001"/>
</g>
<!-- src/domain/reducers/reducerToggleProduct.js -->
<g id="node30" class="node">
<title>src/domain/reducers/reducerToggleProduct.js</title>
<g id="a_node30"><a xlink:href="src/domain/reducers/reducerToggleProduct.js" xlink:title="reducerToggleProduct.js">
<path fill="#ffffcc" stroke="#000000" d="M638.723,-675.5C638.723,-675.5 536.9499,-675.5 536.9499,-675.5 534.1165,-675.5 531.2832,-672.6667 531.2832,-669.8333 531.2832,-669.8333 531.2832,-664.1667 531.2832,-664.1667 531.2832,-661.3333 534.1165,-658.5 536.9499,-658.5 536.9499,-658.5 638.723,-658.5 638.723,-658.5 641.5563,-658.5 644.3897,-661.3333 644.3897,-664.1667 644.3897,-664.1667 644.3897,-669.8333 644.3897,-669.8333 644.3897,-672.6667 641.5563,-675.5 638.723,-675.5"/>
<text text-anchor="middle" x="587.8364" y="-664.3" font-family="Helvetica,sans-Serif" font-size="9.00" fill="#000000">reducerToggleProduct.js</text>
</a>
</g>
</g>
<!-- src/domain/reducers/index.js&#45;&gt;src/domain/reducers/reducerToggleProduct.js -->
<g id="edge31" class="edge">
<title>src/domain/reducers/index.js&#45;&gt;src/domain/reducers/reducerToggleProduct.js</title>
<path fill="none" stroke="#000000" d="M445.0953,-617.5102C462.2857,-627.3883 492.2598,-643.5306 519.8164,-653 522.7435,-654.0059 525.7676,-654.9508 528.8398,-655.8369"/>
<polygon fill="#000000" stroke="#000000" points="528.1921,-659.2861 538.7554,-658.4691 529.9882,-652.5204 528.1921,-659.2861"/>
</g>
<!-- src/domain/reducers/reducersLoad.js -->
<g id="node31" class="node">
<title>src/domain/reducers/reducersLoad.js</title>
<g id="a_node31"><a xlink:href="src/domain/reducers/reducersLoad.js" xlink:title="reducersLoad.js">
<path fill="#ffffcc" stroke="#000000" d="M622.2069,-646.5C622.2069,-646.5 553.466,-646.5 553.466,-646.5 550.6326,-646.5 547.7993,-643.6667 547.7993,-640.8333 547.7993,-640.8333 547.7993,-635.1667 547.7993,-635.1667 547.7993,-632.3333 550.6326,-629.5 553.466,-629.5 553.466,-629.5 622.2069,-629.5 622.2069,-629.5 625.0402,-629.5 627.8735,-632.3333 627.8735,-635.1667 627.8735,-635.1667 627.8735,-640.8333 627.8735,-640.8333 627.8735,-643.6667 625.0402,-646.5 622.2069,-646.5"/>
<text text-anchor="middle" x="587.8364" y="-635.3" font-family="Helvetica,sans-Serif" font-size="9.00" fill="#000000">reducersLoad.js</text>
</a>
</g>
</g>
<!-- src/domain/reducers/index.js&#45;&gt;src/domain/reducers/reducersLoad.js -->
<g id="edge32" class="edge">
<title>src/domain/reducers/index.js&#45;&gt;src/domain/reducers/reducersLoad.js</title>
<path fill="none" stroke="#000000" d="M458.1406,-614.0514C479.942,-618.0771 511.0636,-623.8238 537.3561,-628.6787"/>
<polygon fill="#000000" stroke="#000000" points="537.0689,-632.1848 547.5382,-630.5589 538.34,-625.3011 537.0689,-632.1848"/>
</g>
<!-- src/domain/reducers/reducerSelectCategory.js&#45;&gt;src/domain/getDefaultState.js -->
<g id="edge33" class="edge">
<title>src/domain/reducers/reducerSelectCategory.js&#45;&gt;src/domain/getDefaultState.js</title>
<path fill="none" stroke="#000000" d="M646.0388,-588.5155C649.4776,-590.3161 652.7112,-592.4574 655.6106,-595 663.4331,-601.8597 656.0671,-609.8347 663.6106,-617 668.0032,-621.1724 673.2036,-624.5173 678.7458,-627.1985"/>
<polygon fill="#000000" stroke="#000000" points="677.7325,-630.5655 688.3131,-631.1133 680.3834,-624.0869 677.7325,-630.5655"/>
</g>
<!-- src/domain/reducers/reducerSelectCategory.js&#45;&gt;src/domain/lib/getFilteredProducts.js -->
<g id="edge34" class="edge">
<title>src/domain/reducers/reducerSelectCategory.js&#45;&gt;src/domain/lib/getFilteredProducts.js</title>
<path fill="none" stroke="#000000" d="M646.1136,-580C654.1435,-580 662.4116,-580 670.4996,-580"/>
<polygon fill="#000000" stroke="#000000" points="670.6167,-583.5001 680.6167,-580 670.6166,-576.5001 670.6167,-583.5001"/>
</g>
<!-- src/domain/reducers/reducerSetProductFilter.js&#45;&gt;src/domain/getDefaultState.js -->
<g id="edge35" class="edge">
<title>src/domain/reducers/reducerSetProductFilter.js&#45;&gt;src/domain/getDefaultState.js</title>
<path fill="none" stroke="#000000" d="M630.3513,-617.5441C645.773,-620.6434 663.381,-624.182 679.5669,-627.4348"/>
<polygon fill="#000000" stroke="#000000" points="678.9352,-630.8778 689.4288,-629.4168 680.3144,-624.015 678.9352,-630.8778"/>
</g>
<!-- src/domain/reducers/reducerSetProductFilter.js&#45;&gt;src/domain/lib/getFilteredProducts.js -->
<g id="edge36" class="edge">
<title>src/domain/reducers/reducerSetProductFilter.js&#45;&gt;src/domain/lib/getFilteredProducts.js</title>
<path fill="none" stroke="#000000" d="M630.5559,-600.4551C638.8791,-598.7114 647.5282,-596.8443 655.6106,-595 659.1837,-594.1847 660.031,-593.7863 663.6106,-593 667.4268,-592.1617 671.3696,-591.3283 675.3465,-590.5117"/>
<polygon fill="#000000" stroke="#000000" points="676.134,-593.9235 685.2495,-588.5236 674.7562,-587.0604 676.134,-593.9235"/>
</g>
<!-- src/domain/reducers/reducerToggleProduct.js&#45;&gt;src/domain/getDefaultState.js -->
<g id="edge37" class="edge">
<title>src/domain/reducers/reducerToggleProduct.js&#45;&gt;src/domain/getDefaultState.js</title>
<path fill="none" stroke="#000000" d="M630.3513,-658.4559C645.773,-655.3566 663.381,-651.818 679.5669,-648.5652"/>
<polygon fill="#000000" stroke="#000000" points="680.3144,-651.985 689.4288,-646.5832 678.9352,-645.1222 680.3144,-651.985"/>
</g>
<!-- src/domain/reducers/reducersLoad.js&#45;&gt;src/domain/getDefaultState.js -->
<g id="edge38" class="edge">
<title>src/domain/reducers/reducersLoad.js&#45;&gt;src/domain/getDefaultState.js</title>
<path fill="none" stroke="#000000" d="M628.0326,-638C643.5712,-638 661.5879,-638 678.221,-638"/>
<polygon fill="#000000" stroke="#000000" points="678.3642,-641.5001 688.3642,-638 678.3641,-634.5001 678.3642,-641.5001"/>
</g>
<!-- src/domain/reducers/reducersLoad.js&#45;&gt;src/domain/lib/getFilteredProducts.js -->
<g id="edge39" class="edge">
<title>src/domain/reducers/reducersLoad.js&#45;&gt;src/domain/lib/getFilteredProducts.js</title>
<path fill="none" stroke="#000000" d="M627.9047,-637.1052C638.0242,-635.0438 648.128,-631.1257 655.6106,-624 665.9149,-614.1872 653.227,-602.7289 663.6106,-593 665.9219,-590.8344 668.4763,-588.9756 671.2,-587.3835"/>
<polygon fill="#000000" stroke="#000000" points="672.7631,-590.5171 680.3847,-583.1576 669.8371,-584.158 672.7631,-590.5171"/>
</g>
<!-- src/domain/store.js&#45;&gt;src/domain/reducers/index.js -->
<g id="edge40" class="edge">
<title>src/domain/store.js&#45;&gt;src/domain/reducers/index.js</title>
<path fill="none" stroke="#000000" d="M336.1412,-520.6242C340.8563,-522.3371 345.5808,-524.4408 349.752,-527 378.1933,-544.4499 403.9575,-573.9493 418.4689,-592.4031"/>
<polygon fill="#000000" stroke="#000000" points="415.7916,-594.6635 424.6512,-600.4736 421.3486,-590.4067 415.7916,-594.6635"/>
</g>
<!-- src/index.jsx -->
<g id="node33" class="node">
<title>src/index.jsx</title>
<g id="a_node33"><a xlink:href="src/index.jsx" xlink:title="index.jsx">
<path fill="#ffffcc" stroke="#000000" d="M64.3333,-522.5C64.3333,-522.5 21.6667,-522.5 21.6667,-522.5 18.8333,-522.5 16,-519.6667 16,-516.8333 16,-516.8333 16,-511.1667 16,-511.1667 16,-508.3333 18.8333,-505.5 21.6667,-505.5 21.6667,-505.5 64.3333,-505.5 64.3333,-505.5 67.1667,-505.5 70,-508.3333 70,-511.1667 70,-511.1667 70,-516.8333 70,-516.8333 70,-519.6667 67.1667,-522.5 64.3333,-522.5"/>
<text text-anchor="middle" x="43" y="-511.3" font-family="Helvetica,sans-Serif" font-size="9.00" fill="#000000">index.jsx</text>
</a>
</g>
</g>
<!-- src/index.jsx&#45;&gt;src/components/App/App.jsx -->
<g id="edge41" class="edge">
<title>src/index.jsx&#45;&gt;src/components/App/App.jsx</title>
<path fill="none" stroke="#000000" d="M43.6927,-505.3075C46.302,-474.6844 56.5033,-372.396 78,-349 79.9788,-346.8464 82.3005,-345.0448 84.8222,-343.5383"/>
<polygon fill="#000000" stroke="#000000" points="86.2471,-346.7352 93.9589,-339.4703 83.3998,-340.3404 86.2471,-346.7352"/>
</g>
<!-- src/index.jsx&#45;&gt;src/domain/actions/actionsLoad.js -->
<g id="edge42" class="edge">
<title>src/index.jsx&#45;&gt;src/domain/actions/actionsLoad.js</title>
<path fill="none" stroke="#000000" d="M45.806,-522.6748C58.6734,-560.6067 115.8181,-710 217.6941,-710 217.6941,-710 217.6941,-710 309.0701,-710 399.219,-710 447.2509,-766.9137 511.8164,-704 523.2934,-692.8166 511.8414,-573.8992 519.8164,-560 527.8893,-545.9302 542.3589,-535.4412 555.8832,-528.1458"/>
<polygon fill="#000000" stroke="#000000" points="557.6155,-531.1932 565.0049,-523.6006 554.4936,-524.9279 557.6155,-531.1932"/>
</g>
<!-- src/index.jsx&#45;&gt;src/domain/store.js -->
<g id="edge43" class="edge">
<title>src/index.jsx&#45;&gt;src/domain/store.js</title>
<path fill="none" stroke="#000000" d="M70.472,-514C118.3953,-514 217.3254,-514 271.531,-514"/>
<polygon fill="#000000" stroke="#000000" points="271.7475,-517.5001 281.7475,-514 271.7475,-510.5001 271.7475,-517.5001"/>
</g>
</g>
</svg>
