<?xml version="1.0" encoding="UTF-8" standalone="no"?>
<!DOCTYPE svg PUBLIC "-//W3C//DTD SVG 1.1//EN"
 "http://www.w3.org/Graphics/SVG/1.1/DTD/svg11.dtd">
<!-- Generated by graphviz version 2.40.1 (20161225.0304)
 -->
<!-- Title: dependency&#45;cruiser output Pages: 1 -->
<svg width="917pt" height="436pt"
 viewBox="0.00 0.00 916.60 436.00" xmlns="http://www.w3.org/2000/svg" xmlns:xlink="http://www.w3.org/1999/xlink">
<g id="graph0" class="graph" transform="scale(1 1) rotate(0) translate(4 432)">
<title>dependency&#45;cruiser output</title>
<polygon fill="#ffffff" stroke="transparent" points="-4,4 -4,-432 912.6001,-432 912.6001,4 -4,4"/>
<g id="clust1" class="cluster">
<title>cluster_/src</title>
<path fill="none" stroke="#000000" stroke-width="2" d="M20,-8C20,-8 888.6001,-8 888.6001,-8 894.6001,-8 900.6001,-14 900.6001,-20 900.6001,-20 900.6001,-408 900.6001,-408 900.6001,-414 894.6001,-420 888.6001,-420 888.6001,-420 20,-420 20,-420 14,-420 8,-414 8,-408 8,-408 8,-20 8,-20 8,-14 14,-8 20,-8"/>
<text text-anchor="middle" x="454.3" y="-408.8" font-family="Helvetica,sans-Serif" font-weight="bold" font-size="9.00" fill="#000000">src</text>
</g>
<g id="clust2" class="cluster">
<title>cluster_/src/atoms</title>
<path fill="none" stroke="#000000" stroke-width="2" d="M531.8164,-16C531.8164,-16 880.6001,-16 880.6001,-16 886.6001,-16 892.6001,-22 892.6001,-28 892.6001,-28 892.6001,-383 892.6001,-383 892.6001,-389 886.6001,-395 880.6001,-395 880.6001,-395 531.8164,-395 531.8164,-395 525.8164,-395 519.8164,-389 519.8164,-383 519.8164,-383 519.8164,-28 519.8164,-28 519.8164,-22 525.8164,-16 531.8164,-16"/>
<text text-anchor="middle" x="706.2083" y="-383.8" font-family="Helvetica,sans-Serif" font-weight="bold" font-size="9.00" fill="#000000">atoms</text>
</g>
<g id="clust3" class="cluster">
<title>cluster_/src/atoms/LoadError</title>
<path fill="none" stroke="#000000" stroke-width="2" d="M557.322,-260C557.322,-260 618.3508,-260 618.3508,-260 624.3508,-260 630.3508,-266 630.3508,-272 630.3508,-272 630.3508,-299 630.3508,-299 630.3508,-305 624.3508,-311 618.3508,-311 618.3508,-311 557.322,-311 557.322,-311 551.322,-311 545.322,-305 545.322,-299 545.322,-299 545.322,-272 545.322,-272 545.322,-266 551.322,-260 557.322,-260"/>
<text text-anchor="middle" x="587.8364" y="-299.8" font-family="Helvetica,sans-Serif" font-weight="bold" font-size="9.00" fill="#000000">LoadError</text>
</g>
<g id="clust4" class="cluster">
<title>cluster_/src/atoms/Loading</title>
<path fill="none" stroke="#000000" stroke-width="2" d="M561.0706,-319C561.0706,-319 614.6023,-319 614.6023,-319 620.6023,-319 626.6023,-325 626.6023,-331 626.6023,-331 626.6023,-358 626.6023,-358 626.6023,-364 620.6023,-370 614.6023,-370 614.6023,-370 561.0706,-370 561.0706,-370 555.0706,-370 549.0706,-364 549.0706,-358 549.0706,-358 549.0706,-331 549.0706,-331 549.0706,-325 555.0706,-319 561.0706,-319"/>
<text text-anchor="middle" x="587.8364" y="-358.8" font-family="Helvetica,sans-Serif" font-weight="bold" font-size="9.00" fill="#000000">Loading</text>
</g>
<g id="clust5" class="cluster">
<title>cluster_/src/atoms/ProductCategories</title>
<path fill="none" stroke="#000000" stroke-width="2" d="M539.8164,-24C539.8164,-24 635.8564,-24 635.8564,-24 641.8564,-24 647.8564,-30 647.8564,-36 647.8564,-36 647.8564,-63 647.8564,-63 647.8564,-69 641.8564,-75 635.8564,-75 635.8564,-75 539.8164,-75 539.8164,-75 533.8164,-75 527.8164,-69 527.8164,-63 527.8164,-63 527.8164,-36 527.8164,-36 527.8164,-30 533.8164,-24 539.8164,-24"/>
<text text-anchor="middle" x="587.8364" y="-63.8" font-family="Helvetica,sans-Serif" font-weight="bold" font-size="9.00" fill="#000000">ProductCategories</text>
</g>
<g id="clust6" class="cluster">
<title>cluster_/src/atoms/ProductCategory</title>
<path fill="none" stroke="#000000" stroke-width="2" d="M667.8564,-24C667.8564,-24 872.6001,-24 872.6001,-24 878.6001,-24 884.6001,-30 884.6001,-36 884.6001,-36 884.6001,-63 884.6001,-63 884.6001,-69 878.6001,-75 872.6001,-75 872.6001,-75 667.8564,-75 667.8564,-75 661.8564,-75 655.8564,-69 655.8564,-63 655.8564,-63 655.8564,-36 655.8564,-36 655.8564,-30 661.8564,-24 667.8564,-24"/>
<text text-anchor="middle" x="770.2283" y="-63.8" font-family="Helvetica,sans-Serif" font-weight="bold" font-size="9.00" fill="#000000">ProductCategory</text>
</g>
<g id="clust7" class="cluster">
<title>cluster_/src/atoms/ProductFilter</title>
<path fill="none" stroke="#000000" stroke-width="2" d="M551.8245,-201C551.8245,-201 751.5544,-201 751.5544,-201 757.5544,-201 763.5544,-207 763.5544,-213 763.5544,-213 763.5544,-240 763.5544,-240 763.5544,-246 757.5544,-252 751.5544,-252 751.5544,-252 551.8245,-252 551.8245,-252 545.8245,-252 539.8245,-246 539.8245,-240 539.8245,-240 539.8245,-213 539.8245,-213 539.8245,-207 545.8245,-201 551.8245,-201"/>
<text text-anchor="middle" x="651.6895" y="-240.8" font-family="Helvetica,sans-Serif" font-weight="bold" font-size="9.00" fill="#000000">ProductFilter</text>
</g>
<g id="clust8" class="cluster">
<title>cluster_/src/atoms/ProductItem</title>
<path fill="none" stroke="#000000" stroke-width="2" d="M677.0322,-142C677.0322,-142 863.4243,-142 863.4243,-142 869.4243,-142 875.4243,-148 875.4243,-154 875.4243,-154 875.4243,-181 875.4243,-181 875.4243,-187 869.4243,-193 863.4243,-193 863.4243,-193 677.0322,-193 677.0322,-193 671.0322,-193 665.0322,-187 665.0322,-181 665.0322,-181 665.0322,-154 665.0322,-154 665.0322,-148 671.0322,-142 677.0322,-142"/>
<text text-anchor="middle" x="770.2283" y="-181.8" font-family="Helvetica,sans-Serif" font-weight="bold" font-size="9.00" fill="#000000">ProductItem</text>
</g>
<g id="clust9" class="cluster">
<title>cluster_/src/atoms/ProductList</title>
<path fill="none" stroke="#000000" stroke-width="2" d="M554.5754,-83C554.5754,-83 748.8035,-83 748.8035,-83 754.8035,-83 760.8035,-89 760.8035,-95 760.8035,-95 760.8035,-122 760.8035,-122 760.8035,-128 754.8035,-134 748.8035,-134 748.8035,-134 554.5754,-134 554.5754,-134 548.5754,-134 542.5754,-128 542.5754,-122 542.5754,-122 542.5754,-95 542.5754,-95 542.5754,-89 548.5754,-83 554.5754,-83"/>
<text text-anchor="middle" x="651.6895" y="-122.8" font-family="Helvetica,sans-Serif" font-weight="bold" font-size="9.00" fill="#000000">ProductList</text>
</g>
<g id="clust10" class="cluster">
<title>cluster_/src/components</title>
<path fill="none" stroke="#000000" stroke-width="2" d="M90,-75C90,-75 499.8164,-75 499.8164,-75 505.8164,-75 511.8164,-81 511.8164,-87 511.8164,-87 511.8164,-265 511.8164,-265 511.8164,-271 505.8164,-277 499.8164,-277 499.8164,-277 90,-277 90,-277 84,-277 78,-271 78,-265 78,-265 78,-87 78,-87 78,-81 84,-75 90,-75"/>
<text text-anchor="middle" x="294.9082" y="-265.8" font-family="Helvetica,sans-Serif" font-weight="bold" font-size="9.00" fill="#000000">components</text>
</g>
<g id="clust11" class="cluster">
<title>cluster_/src/components/App</title>
<path fill="none" stroke="#000000" stroke-width="2" d="M98,-201C98,-201 144,-201 144,-201 150,-201 156,-207 156,-213 156,-213 156,-240 156,-240 156,-246 150,-252 144,-252 144,-252 98,-252 98,-252 92,-252 86,-246 86,-240 86,-240 86,-213 86,-213 86,-207 92,-201 98,-201"/>
<text text-anchor="middle" x="121" y="-240.8" font-family="Helvetica,sans-Serif" font-weight="bold" font-size="9.00" fill="#000000">App</text>
</g>
<g id="clust12" class="cluster">
<title>cluster_/src/components/BoundAppBody</title>
<path fill="none" stroke="#000000" stroke-width="2" d="M176,-201C176,-201 337.752,-201 337.752,-201 343.752,-201 349.752,-207 349.752,-213 349.752,-213 349.752,-240 349.752,-240 349.752,-246 343.752,-252 337.752,-252 337.752,-252 176,-252 176,-252 170,-252 164,-246 164,-240 164,-240 164,-213 164,-213 164,-207 170,-201 176,-201"/>
<text text-anchor="middle" x="256.876" y="-240.8" font-family="Helvetica,sans-Serif" font-weight="bold" font-size="9.00" fill="#000000">BoundAppBody</text>
</g>
<g id="clust13" class="cluster">
<title>cluster_/src/components/BoundProductCategories</title>
<path fill="none" stroke="#000000" stroke-width="2" d="M369.752,-83C369.752,-83 491.8164,-83 491.8164,-83 497.8164,-83 503.8164,-89 503.8164,-95 503.8164,-95 503.8164,-122 503.8164,-122 503.8164,-128 497.8164,-134 491.8164,-134 491.8164,-134 369.752,-134 369.752,-134 363.752,-134 357.752,-128 357.752,-122 357.752,-122 357.752,-95 357.752,-95 357.752,-89 363.752,-83 369.752,-83"/>
<text text-anchor="middle" x="430.7842" y="-122.8" font-family="Helvetica,sans-Serif" font-weight="bold" font-size="9.00" fill="#000000">BoundProductCategories</text>
</g>
<g id="clust14" class="cluster">
<title>cluster_/src/components/BoundProductFilter</title>
<path fill="none" stroke="#000000" stroke-width="2" d="M381.76,-201C381.76,-201 479.8083,-201 479.8083,-201 485.8083,-201 491.8083,-207 491.8083,-213 491.8083,-213 491.8083,-240 491.8083,-240 491.8083,-246 485.8083,-252 479.8083,-252 479.8083,-252 381.76,-252 381.76,-252 375.76,-252 369.76,-246 369.76,-240 369.76,-240 369.76,-213 369.76,-213 369.76,-207 375.76,-201 381.76,-201"/>
<text text-anchor="middle" x="430.7842" y="-240.8" font-family="Helvetica,sans-Serif" font-weight="bold" font-size="9.00" fill="#000000">BoundProductFilter</text>
</g>
<g id="clust15" class="cluster">
<title>cluster_/src/components/BoundProductList</title>
<path fill="none" stroke="#000000" stroke-width="2" d="M384.511,-142C384.511,-142 477.0574,-142 477.0574,-142 483.0574,-142 489.0574,-148 489.0574,-154 489.0574,-154 489.0574,-181 489.0574,-181 489.0574,-187 483.0574,-193 477.0574,-193 477.0574,-193 384.511,-193 384.511,-193 378.511,-193 372.511,-187 372.511,-181 372.511,-181 372.511,-154 372.511,-154 372.511,-148 378.511,-142 384.511,-142"/>
<text text-anchor="middle" x="430.7842" y="-181.8" font-family="Helvetica,sans-Serif" font-weight="bold" font-size="9.00" fill="#000000">BoundProductList</text>
</g>
<!-- src/atoms/LoadError/LoadError.jsx -->
<g id="node1" class="node">
<title>src/atoms/LoadError/LoadError.jsx</title>
<g id="a_node1"><a xlink:href="src/atoms/LoadError/LoadError.jsx" xlink:title="LoadError.jsx">
<path fill="#ffffcc" stroke="#000000" d="M616.6986,-285.5C616.6986,-285.5 558.9743,-285.5 558.9743,-285.5 556.1409,-285.5 553.3076,-282.6667 553.3076,-279.8333 553.3076,-279.8333 553.3076,-274.1667 553.3076,-274.1667 553.3076,-271.3333 556.1409,-268.5 558.9743,-268.5 558.9743,-268.5 616.6986,-268.5 616.6986,-268.5 619.5319,-268.5 622.3652,-271.3333 622.3652,-274.1667 622.3652,-274.1667 622.3652,-279.8333 622.3652,-279.8333 622.3652,-282.6667 619.5319,-285.5 616.6986,-285.5"/>
<text text-anchor="middle" x="587.8364" y="-274.3" font-family="Helvetica,sans-Serif" font-size="9.00" fill="#000000">LoadError.jsx</text>
</a>
</g>
</g>
<!-- src/atoms/Loading/Loading.jsx -->
<g id="node2" class="node">
<title>src/atoms/Loading/Loading.jsx</title>
<g id="a_node2"><a xlink:href="src/atoms/Loading/Loading.jsx" xlink:title="Loading.jsx">
<path fill="#ffffcc" stroke="#000000" d="M612.7033,-344.5C612.7033,-344.5 562.9696,-344.5 562.9696,-344.5 560.1363,-344.5 557.3029,-341.6667 557.3029,-338.8333 557.3029,-338.8333 557.3029,-333.1667 557.3029,-333.1667 557.3029,-330.3333 560.1363,-327.5 562.9696,-327.5 562.9696,-327.5 612.7033,-327.5 612.7033,-327.5 615.5366,-327.5 618.3699,-330.3333 618.3699,-333.1667 618.3699,-333.1667 618.3699,-338.8333 618.3699,-338.8333 618.3699,-341.6667 615.5366,-344.5 612.7033,-344.5"/>
<text text-anchor="middle" x="587.8364" y="-333.3" font-family="Helvetica,sans-Serif" font-size="9.00" fill="#000000">Loading.jsx</text>
</a>
</g>
</g>
<!-- src/atoms/ProductCategories/ProductCategories.jsx -->
<g id="node3" class="node">
<title>src/atoms/ProductCategories/ProductCategories.jsx</title>
<g id="a_node3"><a xlink:href="src/atoms/ProductCategories/ProductCategories.jsx" xlink:title="ProductCategories.jsx">
<path fill="#ffffcc" stroke="#000000" d="M634.2098,-49.5C634.2098,-49.5 541.463,-49.5 541.463,-49.5 538.6297,-49.5 535.7964,-46.6667 535.7964,-43.8333 535.7964,-43.8333 535.7964,-38.1667 535.7964,-38.1667 535.7964,-35.3333 538.6297,-32.5 541.463,-32.5 541.463,-32.5 634.2098,-32.5 634.2098,-32.5 637.0431,-32.5 639.8765,-35.3333 639.8765,-38.1667 639.8765,-38.1667 639.8765,-43.8333 639.8765,-43.8333 639.8765,-46.6667 637.0431,-49.5 634.2098,-49.5"/>
<text text-anchor="middle" x="587.8364" y="-38.3" font-family="Helvetica,sans-Serif" font-size="9.00" fill="#000000">ProductCategories.jsx</text>
</a>
</g>
</g>
<!-- src/atoms/ProductCategory/ProductCategory.jsx -->
<g id="node4" class="node">
<title>src/atoms/ProductCategory/ProductCategory.jsx</title>
<g id="a_node4"><a xlink:href="src/atoms/ProductCategory/ProductCategory.jsx" xlink:title="ProductCategory.jsx">
<path fill="#ffffcc" stroke="#000000" d="M754.7479,-49.5C754.7479,-49.5 669.3366,-49.5 669.3366,-49.5 666.5033,-49.5 663.6699,-46.6667 663.6699,-43.8333 663.6699,-43.8333 663.6699,-38.1667 663.6699,-38.1667 663.6699,-35.3333 666.5033,-32.5 669.3366,-32.5 669.3366,-32.5 754.7479,-32.5 754.7479,-32.5 757.5812,-32.5 760.4145,-35.3333 760.4145,-38.1667 760.4145,-38.1667 760.4145,-43.8333 760.4145,-43.8333 760.4145,-46.6667 757.5812,-49.5 754.7479,-49.5"/>
<text text-anchor="middle" x="712.0422" y="-38.3" font-family="Helvetica,sans-Serif" font-size="9.00" fill="#000000">ProductCategory.jsx</text>
</a>
</g>
</g>
<!-- src/atoms/ProductCategories/ProductCategories.jsx&#45;&gt;src/atoms/ProductCategory/ProductCategory.jsx -->
<g id="edge1" class="edge">
<title>src/atoms/ProductCategories/ProductCategories.jsx&#45;&gt;src/atoms/ProductCategory/ProductCategory.jsx</title>
<path fill="none" stroke="#000000" d="M640.1509,-41C644.5514,-41 649.0192,-41 653.4629,-41"/>
<polygon fill="#000000" stroke="#000000" points="653.7446,-44.5001 663.7446,-41 653.7446,-37.5001 653.7446,-44.5001"/>
</g>
<!-- src/atoms/ProductCategory/ProductCategory.scss -->
<g id="node5" class="node">
<title>src/atoms/ProductCategory/ProductCategory.scss</title>
<g id="a_node5"><a xlink:href="src/atoms/ProductCategory/ProductCategory.scss" xlink:title="ProductCategory.scss">
<path fill="#ffffcc" stroke="#000000" d="M871.1201,-49.5C871.1201,-49.5 778.708,-49.5 778.708,-49.5 775.8747,-49.5 773.0413,-46.6667 773.0413,-43.8333 773.0413,-43.8333 773.0413,-38.1667 773.0413,-38.1667 773.0413,-35.3333 775.8747,-32.5 778.708,-32.5 778.708,-32.5 871.1201,-32.5 871.1201,-32.5 873.9535,-32.5 876.7868,-35.3333 876.7868,-38.1667 876.7868,-38.1667 876.7868,-43.8333 876.7868,-43.8333 876.7868,-46.6667 873.9535,-49.5 871.1201,-49.5"/>
<text text-anchor="middle" x="824.9141" y="-38.3" font-family="Helvetica,sans-Serif" font-size="9.00" fill="#000000">ProductCategory.scss</text>
</a>
</g>
</g>
<!-- src/atoms/ProductCategory/ProductCategory.jsx&#45;&gt;src/atoms/ProductCategory/ProductCategory.scss -->
<g id="edge2" class="edge">
<title>src/atoms/ProductCategory/ProductCategory.jsx&#45;&gt;src/atoms/ProductCategory/ProductCategory.scss</title>
<path fill="none" stroke="#000000" d="M760.2374,-41C761.0239,-41 761.8125,-41 762.6027,-41"/>
<polygon fill="#000000" stroke="#000000" points="762.9112,-44.5001 772.9111,-41 762.9111,-37.5001 762.9112,-44.5001"/>
</g>
<!-- src/atoms/ProductFilter/ProductFilter.jsx -->
<g id="node6" class="node">
<title>src/atoms/ProductFilter/ProductFilter.jsx</title>
<g id="a_node6"><a xlink:href="src/atoms/ProductFilter/ProductFilter.jsx" xlink:title="ProductFilter.jsx">
<path fill="#ffffcc" stroke="#000000" d="M622.1937,-226.5C622.1937,-226.5 553.4792,-226.5 553.4792,-226.5 550.6458,-226.5 547.8125,-223.6667 547.8125,-220.8333 547.8125,-220.8333 547.8125,-215.1667 547.8125,-215.1667 547.8125,-212.3333 550.6458,-209.5 553.4792,-209.5 553.4792,-209.5 622.1937,-209.5 622.1937,-209.5 625.027,-209.5 627.8604,-212.3333 627.8604,-215.1667 627.8604,-215.1667 627.8604,-220.8333 627.8604,-220.8333 627.8604,-223.6667 625.027,-226.5 622.1937,-226.5"/>
<text text-anchor="middle" x="587.8364" y="-215.3" font-family="Helvetica,sans-Serif" font-size="9.00" fill="#000000">ProductFilter.jsx</text>
</a>
</g>
</g>
<!-- src/atoms/ProductFilter/ProductFilter.scss -->
<g id="node7" class="node">
<title>src/atoms/ProductFilter/ProductFilter.scss</title>
<g id="a_node7"><a xlink:href="src/atoms/ProductFilter/ProductFilter.scss" xlink:title="ProductFilter.scss">
<path fill="#ffffcc" stroke="#000000" d="M749.9,-226.5C749.9,-226.5 674.1845,-226.5 674.1845,-226.5 671.3512,-226.5 668.5178,-223.6667 668.5178,-220.8333 668.5178,-220.8333 668.5178,-215.1667 668.5178,-215.1667 668.5178,-212.3333 671.3512,-209.5 674.1845,-209.5 674.1845,-209.5 749.9,-209.5 749.9,-209.5 752.7333,-209.5 755.5667,-212.3333 755.5667,-215.1667 755.5667,-215.1667 755.5667,-220.8333 755.5667,-220.8333 755.5667,-223.6667 752.7333,-226.5 749.9,-226.5"/>
<text text-anchor="middle" x="712.0422" y="-215.3" font-family="Helvetica,sans-Serif" font-size="9.00" fill="#000000">ProductFilter.scss</text>
</a>
</g>
</g>
<!-- src/atoms/ProductFilter/ProductFilter.jsx&#45;&gt;src/atoms/ProductFilter/ProductFilter.scss -->
<g id="edge3" class="edge">
<title>src/atoms/ProductFilter/ProductFilter.jsx&#45;&gt;src/atoms/ProductFilter/ProductFilter.scss</title>
<path fill="none" stroke="#000000" d="M628.1625,-218C637.8314,-218 648.3067,-218 658.4712,-218"/>
<polygon fill="#000000" stroke="#000000" points="658.4907,-221.5001 668.4907,-218 658.4906,-214.5001 658.4907,-221.5001"/>
</g>
<!-- src/atoms/ProductItem/ProductItem.jsx -->
<g id="node8" class="node">
<title>src/atoms/ProductItem/ProductItem.jsx</title>
<g id="a_node8"><a xlink:href="src/atoms/ProductItem/ProductItem.jsx" xlink:title="ProductItem.jsx">
<path fill="#ffffcc" stroke="#000000" d="M745.3956,-167.5C745.3956,-167.5 678.6889,-167.5 678.6889,-167.5 675.8555,-167.5 673.0222,-164.6667 673.0222,-161.8333 673.0222,-161.8333 673.0222,-156.1667 673.0222,-156.1667 673.0222,-153.3333 675.8555,-150.5 678.6889,-150.5 678.6889,-150.5 745.3956,-150.5 745.3956,-150.5 748.2289,-150.5 751.0623,-153.3333 751.0623,-156.1667 751.0623,-156.1667 751.0623,-161.8333 751.0623,-161.8333 751.0623,-164.6667 748.2289,-167.5 745.3956,-167.5"/>
<text text-anchor="middle" x="712.0422" y="-156.3" font-family="Helvetica,sans-Serif" font-size="9.00" fill="#000000">ProductItem.jsx</text>
</a>
</g>
</g>
<!-- src/atoms/ProductItem/ProductItem.scss -->
<g id="node9" class="node">
<title>src/atoms/ProductItem/ProductItem.scss</title>
<g id="a_node9"><a xlink:href="src/atoms/ProductItem/ProductItem.scss" xlink:title="ProductItem.scss">
<path fill="#ffffcc" stroke="#000000" d="M861.7679,-167.5C861.7679,-167.5 788.0602,-167.5 788.0602,-167.5 785.2269,-167.5 782.3936,-164.6667 782.3936,-161.8333 782.3936,-161.8333 782.3936,-156.1667 782.3936,-156.1667 782.3936,-153.3333 785.2269,-150.5 788.0602,-150.5 788.0602,-150.5 861.7679,-150.5 861.7679,-150.5 864.6012,-150.5 867.4346,-153.3333 867.4346,-156.1667 867.4346,-156.1667 867.4346,-161.8333 867.4346,-161.8333 867.4346,-164.6667 864.6012,-167.5 861.7679,-167.5"/>
<text text-anchor="middle" x="824.9141" y="-156.3" font-family="Helvetica,sans-Serif" font-size="9.00" fill="#000000">ProductItem.scss</text>
</a>
</g>
</g>
<!-- src/atoms/ProductItem/ProductItem.jsx&#45;&gt;src/atoms/ProductItem/ProductItem.scss -->
<g id="edge4" class="edge">
<title>src/atoms/ProductItem/ProductItem.jsx&#45;&gt;src/atoms/ProductItem/ProductItem.scss</title>
<path fill="none" stroke="#000000" d="M751.2026,-159C757.9617,-159 765.0868,-159 772.1355,-159"/>
<polygon fill="#000000" stroke="#000000" points="772.3565,-162.5001 782.3564,-159 772.3564,-155.5001 772.3565,-162.5001"/>
</g>
<!-- src/atoms/ProductList/ProductList.jsx -->
<g id="node10" class="node">
<title>src/atoms/ProductList/ProductList.jsx</title>
<g id="a_node10"><a xlink:href="src/atoms/ProductList/ProductList.jsx" xlink:title="ProductList.jsx">
<path fill="#ffffcc" stroke="#000000" d="M619.1933,-108.5C619.1933,-108.5 556.4796,-108.5 556.4796,-108.5 553.6463,-108.5 550.8129,-105.6667 550.8129,-102.8333 550.8129,-102.8333 550.8129,-97.1667 550.8129,-97.1667 550.8129,-94.3333 553.6463,-91.5 556.4796,-91.5 556.4796,-91.5 619.1933,-91.5 619.1933,-91.5 622.0266,-91.5 624.8599,-94.3333 624.8599,-97.1667 624.8599,-97.1667 624.8599,-102.8333 624.8599,-102.8333 624.8599,-105.6667 622.0266,-108.5 619.1933,-108.5"/>
<text text-anchor="middle" x="587.8364" y="-97.3" font-family="Helvetica,sans-Serif" font-size="9.00" fill="#000000">ProductList.jsx</text>
</a>
</g>
</g>
<!-- src/atoms/ProductList/ProductList.jsx&#45;&gt;src/atoms/ProductItem/ProductItem.jsx -->
<g id="edge5" class="edge">
<title>src/atoms/ProductList/ProductList.jsx&#45;&gt;src/atoms/ProductItem/ProductItem.jsx</title>
<path fill="none" stroke="#000000" d="M602.4241,-108.6268C616.0154,-116.497 636.9664,-128.206 655.8564,-137 663.2017,-140.4195 671.2372,-143.7809 678.8754,-146.8072"/>
<polygon fill="#000000" stroke="#000000" points="677.6669,-150.0925 688.256,-150.4404 680.1951,-143.5649 677.6669,-150.0925"/>
</g>
<!-- src/atoms/ProductList/ProductList.scss -->
<g id="node11" class="node">
<title>src/atoms/ProductList/ProductList.scss</title>
<g id="a_node11"><a xlink:href="src/atoms/ProductList/ProductList.scss" xlink:title="ProductList.scss">
<path fill="#ffffcc" stroke="#000000" d="M746.8994,-108.5C746.8994,-108.5 677.1851,-108.5 677.1851,-108.5 674.3517,-108.5 671.5184,-105.6667 671.5184,-102.8333 671.5184,-102.8333 671.5184,-97.1667 671.5184,-97.1667 671.5184,-94.3333 674.3517,-91.5 677.1851,-91.5 677.1851,-91.5 746.8994,-91.5 746.8994,-91.5 749.7328,-91.5 752.5661,-94.3333 752.5661,-97.1667 752.5661,-97.1667 752.5661,-102.8333 752.5661,-102.8333 752.5661,-105.6667 749.7328,-108.5 746.8994,-108.5"/>
<text text-anchor="middle" x="712.0422" y="-97.3" font-family="Helvetica,sans-Serif" font-size="9.00" fill="#000000">ProductList.scss</text>
</a>
</g>
</g>
<!-- src/atoms/ProductList/ProductList.jsx&#45;&gt;src/atoms/ProductList/ProductList.scss -->
<g id="edge6" class="edge">
<title>src/atoms/ProductList/ProductList.jsx&#45;&gt;src/atoms/ProductList/ProductList.scss</title>
<path fill="none" stroke="#000000" d="M625.1023,-100C636.3767,-100 648.9588,-100 660.9718,-100"/>
<polygon fill="#000000" stroke="#000000" points="661.335,-103.5001 671.335,-100 661.335,-96.5001 661.335,-103.5001"/>
</g>
<!-- src/components/App/App.jsx -->
<g id="node12" class="node">
<title>src/components/App/App.jsx</title>
<g id="a_node12"><a xlink:href="src/components/App/App.jsx" xlink:title="App.jsx">
<path fill="#ffffcc" stroke="#000000" d="M142.3333,-226.5C142.3333,-226.5 99.6667,-226.5 99.6667,-226.5 96.8333,-226.5 94,-223.6667 94,-220.8333 94,-220.8333 94,-215.1667 94,-215.1667 94,-212.3333 96.8333,-209.5 99.6667,-209.5 99.6667,-209.5 142.3333,-209.5 142.3333,-209.5 145.1667,-209.5 148,-212.3333 148,-215.1667 148,-215.1667 148,-220.8333 148,-220.8333 148,-223.6667 145.1667,-226.5 142.3333,-226.5"/>
<text text-anchor="middle" x="121" y="-215.3" font-family="Helvetica,sans-Serif" font-size="9.00" fill="#000000">App.jsx</text>
</a>
</g>
</g>
<!-- src/components/BoundAppBody/BoundAppBody.jsx -->
<g id="node14" class="node">
<title>src/components/BoundAppBody/BoundAppBody.jsx</title>
<g id="a_node14"><a xlink:href="src/components/BoundAppBody/BoundAppBody.jsx" xlink:title="BoundAppBody.jsx">
<path fill="#ffffcc" stroke="#000000" d="M257.9164,-226.5C257.9164,-226.5 177.4717,-226.5 177.4717,-226.5 174.6384,-226.5 171.8051,-223.6667 171.8051,-220.8333 171.8051,-220.8333 171.8051,-215.1667 171.8051,-215.1667 171.8051,-212.3333 174.6384,-209.5 177.4717,-209.5 177.4717,-209.5 257.9164,-209.5 257.9164,-209.5 260.7498,-209.5 263.5831,-212.3333 263.5831,-215.1667 263.5831,-215.1667 263.5831,-220.8333 263.5831,-220.8333 263.5831,-223.6667 260.7498,-226.5 257.9164,-226.5"/>
<text text-anchor="middle" x="217.6941" y="-215.3" font-family="Helvetica,sans-Serif" font-size="9.00" fill="#000000">BoundAppBody.jsx</text>
</a>
</g>
</g>
<!-- src/components/App/App.jsx&#45;&gt;src/components/BoundAppBody/BoundAppBody.jsx -->
<g id="edge7" class="edge">
<title>src/components/App/App.jsx&#45;&gt;src/components/BoundAppBody/BoundAppBody.jsx</title>
<path fill="none" stroke="#000000" d="M148.192,-218C152.4547,-218 156.9908,-218 161.6239,-218"/>
<polygon fill="#000000" stroke="#000000" points="161.8536,-221.5001 171.8535,-218 161.8535,-214.5001 161.8536,-221.5001"/>
</g>
<!-- src/components/BoundAppBody/AppBody.jsx -->
<g id="node13" class="node">
<title>src/components/BoundAppBody/AppBody.jsx</title>
<g id="a_node13"><a xlink:href="src/components/BoundAppBody/AppBody.jsx" xlink:title="AppBody.jsx">
<path fill="#ffffcc" stroke="#000000" d="M336.2682,-226.5C336.2682,-226.5 281.8719,-226.5 281.8719,-226.5 279.0386,-226.5 276.2053,-223.6667 276.2053,-220.8333 276.2053,-220.8333 276.2053,-215.1667 276.2053,-215.1667 276.2053,-212.3333 279.0386,-209.5 281.8719,-209.5 281.8719,-209.5 336.2682,-209.5 336.2682,-209.5 339.1015,-209.5 341.9349,-212.3333 341.9349,-215.1667 341.9349,-215.1667 341.9349,-220.8333 341.9349,-220.8333 341.9349,-223.6667 339.1015,-226.5 336.2682,-226.5"/>
<text text-anchor="middle" x="309.0701" y="-215.3" font-family="Helvetica,sans-Serif" font-size="9.00" fill="#000000">AppBody.jsx</text>
</a>
</g>
</g>
<!-- src/components/BoundAppBody/AppBody.jsx&#45;&gt;src/atoms/LoadError/LoadError.jsx -->
<g id="edge8" class="edge">
<title>src/components/BoundAppBody/AppBody.jsx&#45;&gt;src/atoms/LoadError/LoadError.jsx</title>
<path fill="none" stroke="#000000" d="M317.462,-226.7699C326.4944,-235.5856 341.7345,-248.7393 357.752,-255 418.6852,-278.8169 495.3273,-281.2207 542.9552,-279.8258"/>
<polygon fill="#000000" stroke="#000000" points="543.0861,-283.3234 552.9531,-279.4643 542.8331,-276.328 543.0861,-283.3234"/>
</g>
<!-- src/components/BoundAppBody/AppBody.jsx&#45;&gt;src/atoms/Loading/Loading.jsx -->
<g id="edge9" class="edge">
<title>src/components/BoundAppBody/AppBody.jsx&#45;&gt;src/atoms/Loading/Loading.jsx</title>
<path fill="none" stroke="#000000" d="M314.599,-226.5167C322.6741,-238.2749 338.811,-259.3459 357.752,-271 417.5308,-307.7812 498.7219,-324.3316 546.9583,-331.3297"/>
<polygon fill="#000000" stroke="#000000" points="546.6377,-334.8186 557.0226,-332.7201 547.5957,-327.8845 546.6377,-334.8186"/>
</g>
<!-- src/components/BoundProductCategories/BoundProductCategories.jsx -->
<g id="node15" class="node">
<title>src/components/BoundProductCategories/BoundProductCategories.jsx</title>
<g id="a_node15"><a xlink:href="src/components/BoundProductCategories/BoundProductCategories.jsx" xlink:title="BoundProductCategories.jsx">
<path fill="#ffffcc" stroke="#000000" d="M490.182,-108.5C490.182,-108.5 371.3864,-108.5 371.3864,-108.5 368.553,-108.5 365.7197,-105.6667 365.7197,-102.8333 365.7197,-102.8333 365.7197,-97.1667 365.7197,-97.1667 365.7197,-94.3333 368.553,-91.5 371.3864,-91.5 371.3864,-91.5 490.182,-91.5 490.182,-91.5 493.0153,-91.5 495.8486,-94.3333 495.8486,-97.1667 495.8486,-97.1667 495.8486,-102.8333 495.8486,-102.8333 495.8486,-105.6667 493.0153,-108.5 490.182,-108.5"/>
<text text-anchor="middle" x="430.7842" y="-97.3" font-family="Helvetica,sans-Serif" font-size="9.00" fill="#000000">BoundProductCategories.jsx</text>
</a>
</g>
</g>
<!-- src/components/BoundAppBody/AppBody.jsx&#45;&gt;src/components/BoundProductCategories/BoundProductCategories.jsx -->
<g id="edge10" class="edge">
<title>src/components/BoundAppBody/AppBody.jsx&#45;&gt;src/components/BoundProductCategories/BoundProductCategories.jsx</title>
<path fill="none" stroke="#000000" d="M312.5556,-209.3834C319.2679,-193.6783 335.3322,-160.0757 357.752,-139 369.3818,-128.0674 384.664,-119.2811 398.2417,-112.8361"/>
<polygon fill="#000000" stroke="#000000" points="400.0659,-115.8534 407.7505,-108.5598 397.1948,-109.4693 400.0659,-115.8534"/>
</g>
<!-- src/components/BoundProductFilter/BoundProductFilter.jsx -->
<g id="node16" class="node">
<title>src/components/BoundProductFilter/BoundProductFilter.jsx</title>
<g id="a_node16"><a xlink:href="src/components/BoundProductFilter/BoundProductFilter.jsx" xlink:title="BoundProductFilter.jsx">
<path fill="#ffffcc" stroke="#000000" d="M478.1659,-226.5C478.1659,-226.5 383.4025,-226.5 383.4025,-226.5 380.5692,-226.5 377.7358,-223.6667 377.7358,-220.8333 377.7358,-220.8333 377.7358,-215.1667 377.7358,-215.1667 377.7358,-212.3333 380.5692,-209.5 383.4025,-209.5 383.4025,-209.5 478.1659,-209.5 478.1659,-209.5 480.9992,-209.5 483.8325,-212.3333 483.8325,-215.1667 483.8325,-215.1667 483.8325,-220.8333 483.8325,-220.8333 483.8325,-223.6667 480.9992,-226.5 478.1659,-226.5"/>
<text text-anchor="middle" x="430.7842" y="-215.3" font-family="Helvetica,sans-Serif" font-size="9.00" fill="#000000">BoundProductFilter.jsx</text>
</a>
</g>
</g>
<!-- src/components/BoundAppBody/AppBody.jsx&#45;&gt;src/components/BoundProductFilter/BoundProductFilter.jsx -->
<g id="edge11" class="edge">
<title>src/components/BoundAppBody/AppBody.jsx&#45;&gt;src/components/BoundProductFilter/BoundProductFilter.jsx</title>
<path fill="none" stroke="#000000" d="M342.0077,-218C349.9016,-218 358.5956,-218 367.3608,-218"/>
<polygon fill="#000000" stroke="#000000" points="367.6393,-221.5001 377.6393,-218 367.6392,-214.5001 367.6393,-221.5001"/>
</g>
<!-- src/components/BoundProductList/BoundProductList.jsx -->
<g id="node17" class="node">
<title>src/components/BoundProductList/BoundProductList.jsx</title>
<g id="a_node17"><a xlink:href="src/components/BoundProductList/BoundProductList.jsx" xlink:title="BoundProductList.jsx">
<path fill="#ffffcc" stroke="#000000" d="M475.1649,-167.5C475.1649,-167.5 386.4034,-167.5 386.4034,-167.5 383.5701,-167.5 380.7368,-164.6667 380.7368,-161.8333 380.7368,-161.8333 380.7368,-156.1667 380.7368,-156.1667 380.7368,-153.3333 383.5701,-150.5 386.4034,-150.5 386.4034,-150.5 475.1649,-150.5 475.1649,-150.5 477.9983,-150.5 480.8316,-153.3333 480.8316,-156.1667 480.8316,-156.1667 480.8316,-161.8333 480.8316,-161.8333 480.8316,-164.6667 477.9983,-167.5 475.1649,-167.5"/>
<text text-anchor="middle" x="430.7842" y="-156.3" font-family="Helvetica,sans-Serif" font-size="9.00" fill="#000000">BoundProductList.jsx</text>
</a>
</g>
</g>
<!-- src/components/BoundAppBody/AppBody.jsx&#45;&gt;src/components/BoundProductList/BoundProductList.jsx -->
<g id="edge12" class="edge">
<title>src/components/BoundAppBody/AppBody.jsx&#45;&gt;src/components/BoundProductList/BoundProductList.jsx</title>
<path fill="none" stroke="#000000" d="M326.7683,-209.4209C347.0501,-199.5895 380.5082,-183.3709 403.9882,-171.9891"/>
<polygon fill="#000000" stroke="#000000" points="405.5927,-175.101 413.0645,-167.5895 402.5393,-168.802 405.5927,-175.101"/>
</g>
<!-- src/components/BoundAppBody/BoundAppBody.jsx&#45;&gt;src/components/BoundAppBody/AppBody.jsx -->
<g id="edge13" class="edge">
<title>src/components/BoundAppBody/BoundAppBody.jsx&#45;&gt;src/components/BoundAppBody/AppBody.jsx</title>
<path fill="none" stroke="#000000" d="M263.6498,-218C264.4497,-218 265.2496,-218 266.0484,-218"/>
<polygon fill="#000000" stroke="#000000" points="266.291,-221.5001 276.291,-218 266.2909,-214.5001 266.291,-221.5001"/>
</g>
<!-- src/components/BoundProductCategories/BoundProductCategories.jsx&#45;&gt;src/atoms/ProductCategories/ProductCategories.jsx -->
<g id="edge14" class="edge">
<title>src/components/BoundProductCategories/BoundProductCategories.jsx&#45;&gt;src/atoms/ProductCategories/ProductCategories.jsx</title>
<path fill="none" stroke="#000000" d="M453.6209,-91.4209C480.3728,-81.371 524.8906,-64.6469 555.261,-53.2376"/>
<polygon fill="#000000" stroke="#000000" points="556.8418,-56.3827 564.9721,-49.5895 554.38,-49.8298 556.8418,-56.3827"/>
</g>
<!-- src/components/BoundProductFilter/BoundProductFilter.jsx&#45;&gt;src/atoms/ProductFilter/ProductFilter.jsx -->
<g id="edge15" class="edge">
<title>src/components/BoundProductFilter/BoundProductFilter.jsx&#45;&gt;src/atoms/ProductFilter/ProductFilter.jsx</title>
<path fill="none" stroke="#000000" d="M483.9549,-218C501.1992,-218 520.2709,-218 537.3166,-218"/>
<polygon fill="#000000" stroke="#000000" points="537.6338,-221.5001 547.6337,-218 537.6337,-214.5001 537.6338,-221.5001"/>
</g>
<!-- src/components/BoundProductList/BoundProductList.jsx&#45;&gt;src/atoms/ProductList/ProductList.jsx -->
<g id="edge16" class="edge">
<title>src/components/BoundProductList/BoundProductList.jsx&#45;&gt;src/atoms/ProductList/ProductList.jsx</title>
<path fill="none" stroke="#000000" d="M467.9558,-150.4717C481.896,-146.8675 497.7591,-142.2757 511.8164,-137 529.6276,-130.3154 548.8896,-120.9154 563.5678,-113.263"/>
<polygon fill="#000000" stroke="#000000" points="565.2946,-116.309 572.4903,-108.5327 562.0157,-110.1244 565.2946,-116.309"/>
</g>
<!-- src/index.jsx -->
<g id="node18" class="node">
<title>src/index.jsx</title>
<g id="a_node18"><a xlink:href="src/index.jsx" xlink:title="index.jsx">
<path fill="#ffffcc" stroke="#000000" d="M64.3333,-226.5C64.3333,-226.5 21.6667,-226.5 21.6667,-226.5 18.8333,-226.5 16,-223.6667 16,-220.8333 16,-220.8333 16,-215.1667 16,-215.1667 16,-212.3333 18.8333,-209.5 21.6667,-209.5 21.6667,-209.5 64.3333,-209.5 64.3333,-209.5 67.1667,-209.5 70,-212.3333 70,-215.1667 70,-215.1667 70,-220.8333 70,-220.8333 70,-223.6667 67.1667,-226.5 64.3333,-226.5"/>
<text text-anchor="middle" x="43" y="-215.3" font-family="Helvetica,sans-Serif" font-size="9.00" fill="#000000">index.jsx</text>
</a>
</g>
</g>
<!-- src/index.jsx&#45;&gt;src/components/App/App.jsx -->
<g id="edge17" class="edge">
<title>src/index.jsx&#45;&gt;src/components/App/App.jsx</title>
<path fill="none" stroke="#000000" d="M70.2806,-218C74.5804,-218 79.0897,-218 83.5713,-218"/>
<polygon fill="#000000" stroke="#000000" points="83.8665,-221.5001 93.8665,-218 83.8665,-214.5001 83.8665,-221.5001"/>
</g>
</g>
</svg>
