<?xml version="1.0" encoding="UTF-8" standalone="no"?>
<!DOCTYPE svg PUBLIC "-//W3C//DTD SVG 1.1//EN"
 "http://www.w3.org/Graphics/SVG/1.1/DTD/svg11.dtd">
<!-- Generated by graphviz version 2.40.1 (20161225.0304)
 -->
<!-- Title: dependency&#45;cruiser output Pages: 1 -->
<svg width="466pt" height="390pt"
 viewBox="0.00 0.00 465.60 390.00" xmlns="http://www.w3.org/2000/svg" xmlns:xlink="http://www.w3.org/1999/xlink">
<g id="graph0" class="graph" transform="scale(1 1) rotate(0) translate(4 386)">
<title>dependency&#45;cruiser output</title>
<polygon fill="#ffffff" stroke="transparent" points="-4,4 -4,-386 461.604,-386 461.604,4 -4,4"/>
<g id="clust1" class="cluster">
<title>cluster_/src</title>
<path fill="none" stroke="#000000" stroke-width="2" d="M20,-8C20,-8 437.604,-8 437.604,-8 443.604,-8 449.604,-14 449.604,-20 449.604,-20 449.604,-362 449.604,-362 449.604,-368 443.604,-374 437.604,-374 437.604,-374 20,-374 20,-374 14,-374 8,-368 8,-362 8,-362 8,-20 8,-20 8,-14 14,-8 20,-8"/>
<text text-anchor="middle" x="228.802" y="-362.8" font-family="Helvetica,sans-Serif" font-weight="bold" font-size="9.00" fill="#000000">src</text>
</g>
<g id="clust2" class="cluster">
<title>cluster_/src/domain</title>
<path fill="none" stroke="#000000" stroke-width="2" d="M28,-16C28,-16 429.604,-16 429.604,-16 435.604,-16 441.604,-22 441.604,-28 441.604,-28 441.604,-337 441.604,-337 441.604,-343 435.604,-349 429.604,-349 429.604,-349 28,-349 28,-349 22,-349 16,-343 16,-337 16,-337 16,-28 16,-28 16,-22 22,-16 28,-16"/>
<text text-anchor="middle" x="228.802" y="-337.8" font-family="Helvetica,sans-Serif" font-weight="bold" font-size="9.00" fill="#000000">domain</text>
</g>
<g id="clust3" class="cluster">
<title>cluster_/src/domain/actions</title>
<path fill="none" stroke="#000000" stroke-width="2" d="M168.2498,-176C168.2498,-176 273.2986,-176 273.2986,-176 279.2986,-176 285.2986,-182 285.2986,-188 285.2986,-188 285.2986,-302 285.2986,-302 285.2986,-308 279.2986,-314 273.2986,-314 273.2986,-314 168.2498,-314 168.2498,-314 162.2498,-314 156.2498,-308 156.2498,-302 156.2498,-302 156.2498,-188 156.2498,-188 156.2498,-182 162.2498,-176 168.2498,-176"/>
<text text-anchor="middle" x="220.7742" y="-302.8" font-family="Helvetica,sans-Serif" font-weight="bold" font-size="9.00" fill="#000000">actions</text>
</g>
<g id="clust4" class="cluster">
<title>cluster_/src/domain/lib</title>
<path fill="none" stroke="#000000" stroke-width="2" d="M308.5483,-117C308.5483,-117 421.604,-117 421.604,-117 427.604,-117 433.604,-123 433.604,-129 433.604,-129 433.604,-214 433.604,-214 433.604,-220 427.604,-226 421.604,-226 421.604,-226 308.5483,-226 308.5483,-226 302.5483,-226 296.5483,-220 296.5483,-214 296.5483,-214 296.5483,-129 296.5483,-129 296.5483,-123 302.5483,-117 308.5483,-117"/>
<text text-anchor="middle" x="365.0762" y="-214.8" font-family="Helvetica,sans-Serif" font-weight="bold" font-size="9.00" fill="#000000">lib</text>
</g>
<g id="clust5" class="cluster">
<title>cluster_/src/domain/reducers</title>
<path fill="none" stroke="#000000" stroke-width="2" d="M98,-30C98,-30 276.5483,-30 276.5483,-30 282.5483,-30 288.5483,-36 288.5483,-42 288.5483,-42 288.5483,-156 288.5483,-156 288.5483,-162 282.5483,-168 276.5483,-168 276.5483,-168 98,-168 98,-168 92,-168 86,-162 86,-156 86,-156 86,-42 86,-42 86,-36 92,-30 98,-30"/>
<text text-anchor="middle" x="187.2742" y="-156.8" font-family="Helvetica,sans-Serif" font-weight="bold" font-size="9.00" fill="#000000">reducers</text>
</g>
<!-- src/domain/actionTypes.js -->
<g id="node1" class="node">
<title>src/domain/actionTypes.js</title>
<g id="a_node1"><a xlink:href="src/domain/actionTypes.js" xlink:title="actionTypes.js">
<path fill="#ffffcc" stroke="#000000" d="M395.9417,-259.5C395.9417,-259.5 334.2106,-259.5 334.2106,-259.5 331.3773,-259.5 328.5439,-256.6667 328.5439,-253.8333 328.5439,-253.8333 328.5439,-248.1667 328.5439,-248.1667 328.5439,-245.3333 331.3773,-242.5 334.2106,-242.5 334.2106,-242.5 395.9417,-242.5 395.9417,-242.5 398.7751,-242.5 401.6084,-245.3333 401.6084,-248.1667 401.6084,-248.1667 401.6084,-253.8333 401.6084,-253.8333 401.6084,-256.6667 398.7751,-259.5 395.9417,-259.5"/>
<text text-anchor="middle" x="365.0762" y="-248.3" font-family="Helvetica,sans-Serif" font-size="9.00" fill="#000000">actionTypes.js</text>
</a>
</g>
</g>
<!-- src/domain/actions/actionSelectCategory.js -->
<g id="node2" class="node">
<title>src/domain/actions/actionSelectCategory.js</title>
<g id="a_node2"><a xlink:href="src/domain/actions/actionSelectCategory.js" xlink:title="actionSelectCategory.js">
<path fill="#ffffcc" stroke="#000000" d="M269.9923,-230.5C269.9923,-230.5 171.556,-230.5 171.556,-230.5 168.7227,-230.5 165.8893,-227.6667 165.8893,-224.8333 165.8893,-224.8333 165.8893,-219.1667 165.8893,-219.1667 165.8893,-216.3333 168.7227,-213.5 171.556,-213.5 171.556,-213.5 269.9923,-213.5 269.9923,-213.5 272.8257,-213.5 275.659,-216.3333 275.659,-219.1667 275.659,-219.1667 275.659,-224.8333 275.659,-224.8333 275.659,-227.6667 272.8257,-230.5 269.9923,-230.5"/>
<text text-anchor="middle" x="220.7742" y="-219.3" font-family="Helvetica,sans-Serif" font-size="9.00" fill="#000000">actionSelectCategory.js</text>
</a>
</g>
</g>
<!-- src/domain/actions/actionSelectCategory.js&#45;&gt;src/domain/actionTypes.js -->
<g id="edge1" class="edge">
<title>src/domain/actions/actionSelectCategory.js&#45;&gt;src/domain/actionTypes.js</title>
<path fill="none" stroke="#000000" d="M263.2891,-230.5441C280.5241,-234.0078 300.49,-238.0203 318.1495,-241.5693"/>
<polygon fill="#000000" stroke="#000000" points="317.749,-245.0587 328.2426,-243.5976 319.1282,-238.1959 317.749,-245.0587"/>
</g>
<!-- src/domain/actions/actionSetProductFilter.js -->
<g id="node3" class="node">
<title>src/domain/actions/actionSetProductFilter.js</title>
<g id="a_node3"><a xlink:href="src/domain/actions/actionSetProductFilter.js" xlink:title="actionSetProductFilter.js">
<path fill="#ffffcc" stroke="#000000" d="M271.6563,-288.5C271.6563,-288.5 169.892,-288.5 169.892,-288.5 167.0587,-288.5 164.2253,-285.6667 164.2253,-282.8333 164.2253,-282.8333 164.2253,-277.1667 164.2253,-277.1667 164.2253,-274.3333 167.0587,-271.5 169.892,-271.5 169.892,-271.5 271.6563,-271.5 271.6563,-271.5 274.4897,-271.5 277.323,-274.3333 277.323,-277.1667 277.323,-277.1667 277.323,-282.8333 277.323,-282.8333 277.323,-285.6667 274.4897,-288.5 271.6563,-288.5"/>
<text text-anchor="middle" x="220.7742" y="-277.3" font-family="Helvetica,sans-Serif" font-size="9.00" fill="#000000">actionSetProductFilter.js</text>
</a>
</g>
</g>
<!-- src/domain/actions/actionSetProductFilter.js&#45;&gt;src/domain/actionTypes.js -->
<g id="edge2" class="edge">
<title>src/domain/actions/actionSetProductFilter.js&#45;&gt;src/domain/actionTypes.js</title>
<path fill="none" stroke="#000000" d="M263.2891,-271.4559C280.5241,-267.9922 300.49,-263.9797 318.1495,-260.4307"/>
<polygon fill="#000000" stroke="#000000" points="319.1282,-263.8041 328.2426,-258.4024 317.749,-256.9413 319.1282,-263.8041"/>
</g>
<!-- src/domain/actions/actionToggleProduct.js -->
<g id="node4" class="node">
<title>src/domain/actions/actionToggleProduct.js</title>
<g id="a_node4"><a xlink:href="src/domain/actions/actionToggleProduct.js" xlink:title="actionToggleProduct.js">
<path fill="#ffffcc" stroke="#000000" d="M268.1621,-259.5C268.1621,-259.5 173.3862,-259.5 173.3862,-259.5 170.5529,-259.5 167.7195,-256.6667 167.7195,-253.8333 167.7195,-253.8333 167.7195,-248.1667 167.7195,-248.1667 167.7195,-245.3333 170.5529,-242.5 173.3862,-242.5 173.3862,-242.5 268.1621,-242.5 268.1621,-242.5 270.9955,-242.5 273.8288,-245.3333 273.8288,-248.1667 273.8288,-248.1667 273.8288,-253.8333 273.8288,-253.8333 273.8288,-256.6667 270.9955,-259.5 268.1621,-259.5"/>
<text text-anchor="middle" x="220.7742" y="-248.3" font-family="Helvetica,sans-Serif" font-size="9.00" fill="#000000">actionToggleProduct.js</text>
</a>
</g>
</g>
<!-- src/domain/actions/actionToggleProduct.js&#45;&gt;src/domain/actionTypes.js -->
<g id="edge3" class="edge">
<title>src/domain/actions/actionToggleProduct.js&#45;&gt;src/domain/actionTypes.js</title>
<path fill="none" stroke="#000000" d="M274.0969,-251C288.4279,-251 303.8245,-251 317.8017,-251"/>
<polygon fill="#000000" stroke="#000000" points="318.1724,-254.5001 328.1724,-251 318.1724,-247.5001 318.1724,-254.5001"/>
</g>
<!-- src/domain/actions/actionsLoad.js -->
<g id="node5" class="node">
<title>src/domain/actions/actionsLoad.js</title>
<g id="a_node5"><a xlink:href="src/domain/actions/actionsLoad.js" xlink:title="actionsLoad.js">
<path fill="#ffffcc" stroke="#000000" d="M251.6465,-201.5C251.6465,-201.5 189.9018,-201.5 189.9018,-201.5 187.0685,-201.5 184.2351,-198.6667 184.2351,-195.8333 184.2351,-195.8333 184.2351,-190.1667 184.2351,-190.1667 184.2351,-187.3333 187.0685,-184.5 189.9018,-184.5 189.9018,-184.5 251.6465,-184.5 251.6465,-184.5 254.4799,-184.5 257.3132,-187.3333 257.3132,-190.1667 257.3132,-190.1667 257.3132,-195.8333 257.3132,-195.8333 257.3132,-198.6667 254.4799,-201.5 251.6465,-201.5"/>
<text text-anchor="middle" x="220.7742" y="-190.3" font-family="Helvetica,sans-Serif" font-size="9.00" fill="#000000">actionsLoad.js</text>
</a>
</g>
</g>
<!-- src/domain/actions/actionsLoad.js&#45;&gt;src/domain/actionTypes.js -->
<g id="edge4" class="edge">
<title>src/domain/actions/actionsLoad.js&#45;&gt;src/domain/actionTypes.js</title>
<path fill="none" stroke="#000000" d="M257.5456,-194.5233C268.5596,-196.6071 279.9747,-200.5961 288.5483,-208 296.1075,-214.5278 289.3002,-222.1285 296.5483,-229 302.8052,-234.9318 310.6676,-239.2642 318.8155,-242.4284"/>
<polygon fill="#000000" stroke="#000000" points="317.8388,-245.7921 328.4324,-245.6323 320.0513,-239.151 317.8388,-245.7921"/>
</g>
<!-- src/domain/lib/apis.js -->
<g id="node7" class="node">
<title>src/domain/lib/apis.js</title>
<g id="a_node7"><a xlink:href="src/domain/lib/apis.js" xlink:title="apis.js">
<path fill="#ffffcc" stroke="#000000" d="M386.4095,-171.5C386.4095,-171.5 343.7428,-171.5 343.7428,-171.5 340.9095,-171.5 338.0762,-168.6667 338.0762,-165.8333 338.0762,-165.8333 338.0762,-160.1667 338.0762,-160.1667 338.0762,-157.3333 340.9095,-154.5 343.7428,-154.5 343.7428,-154.5 386.4095,-154.5 386.4095,-154.5 389.2428,-154.5 392.0762,-157.3333 392.0762,-160.1667 392.0762,-160.1667 392.0762,-165.8333 392.0762,-165.8333 392.0762,-168.6667 389.2428,-171.5 386.4095,-171.5"/>
<text text-anchor="middle" x="365.0762" y="-160.3" font-family="Helvetica,sans-Serif" font-size="9.00" fill="#000000">apis.js</text>
</a>
</g>
</g>
<!-- src/domain/actions/actionsLoad.js&#45;&gt;src/domain/lib/apis.js -->
<g id="edge5" class="edge">
<title>src/domain/actions/actionsLoad.js&#45;&gt;src/domain/lib/apis.js</title>
<path fill="none" stroke="#000000" d="M257.561,-185.3521C279.1868,-180.8562 306.4438,-175.1895 328.1019,-170.6868"/>
<polygon fill="#000000" stroke="#000000" points="328.8479,-174.1067 337.9261,-168.6444 327.423,-167.2532 328.8479,-174.1067"/>
</g>
<!-- src/domain/lib/buildProductsShowcase.js -->
<g id="node8" class="node">
<title>src/domain/lib/buildProductsShowcase.js</title>
<g id="a_node8"><a xlink:href="src/domain/lib/buildProductsShowcase.js" xlink:title="buildProductsShowcase.js">
<path fill="#ffffcc" stroke="#000000" d="M419.9652,-200.5C419.9652,-200.5 310.1872,-200.5 310.1872,-200.5 307.3538,-200.5 304.5205,-197.6667 304.5205,-194.8333 304.5205,-194.8333 304.5205,-189.1667 304.5205,-189.1667 304.5205,-186.3333 307.3538,-183.5 310.1872,-183.5 310.1872,-183.5 419.9652,-183.5 419.9652,-183.5 422.7985,-183.5 425.6318,-186.3333 425.6318,-189.1667 425.6318,-189.1667 425.6318,-194.8333 425.6318,-194.8333 425.6318,-197.6667 422.7985,-200.5 419.9652,-200.5"/>
<text text-anchor="middle" x="365.0762" y="-189.3" font-family="Helvetica,sans-Serif" font-size="9.00" fill="#000000">buildProductsShowcase.js</text>
</a>
</g>
</g>
<!-- src/domain/actions/actionsLoad.js&#45;&gt;src/domain/lib/buildProductsShowcase.js -->
<g id="edge6" class="edge">
<title>src/domain/actions/actionsLoad.js&#45;&gt;src/domain/lib/buildProductsShowcase.js</title>
<path fill="none" stroke="#000000" d="M257.561,-192.7451C268.8279,-192.667 281.6234,-192.5783 294.3592,-192.4901"/>
<polygon fill="#000000" stroke="#000000" points="294.5545,-195.9889 304.53,-192.4196 294.506,-188.9891 294.5545,-195.9889"/>
</g>
<!-- src/domain/getDefaultState.js -->
<g id="node6" class="node">
<title>src/domain/getDefaultState.js</title>
<g id="a_node6"><a xlink:href="src/domain/getDefaultState.js" xlink:title="getDefaultState.js">
<path fill="#ffffcc" stroke="#000000" d="M402.9515,-84.5C402.9515,-84.5 327.2008,-84.5 327.2008,-84.5 324.3675,-84.5 321.5342,-81.6667 321.5342,-78.8333 321.5342,-78.8333 321.5342,-73.1667 321.5342,-73.1667 321.5342,-70.3333 324.3675,-67.5 327.2008,-67.5 327.2008,-67.5 402.9515,-67.5 402.9515,-67.5 405.7848,-67.5 408.6182,-70.3333 408.6182,-73.1667 408.6182,-73.1667 408.6182,-78.8333 408.6182,-78.8333 408.6182,-81.6667 405.7848,-84.5 402.9515,-84.5"/>
<text text-anchor="middle" x="365.0762" y="-73.3" font-family="Helvetica,sans-Serif" font-size="9.00" fill="#000000">getDefaultState.js</text>
</a>
</g>
</g>
<!-- src/domain/lib/getFilteredProducts.js -->
<g id="node9" class="node">
<title>src/domain/lib/getFilteredProducts.js</title>
<g id="a_node9"><a xlink:href="src/domain/lib/getFilteredProducts.js" xlink:title="getFilteredProducts.js">
<path fill="#ffffcc" stroke="#000000" d="M410.9476,-142.5C410.9476,-142.5 319.2047,-142.5 319.2047,-142.5 316.3714,-142.5 313.5381,-139.6667 313.5381,-136.8333 313.5381,-136.8333 313.5381,-131.1667 313.5381,-131.1667 313.5381,-128.3333 316.3714,-125.5 319.2047,-125.5 319.2047,-125.5 410.9476,-125.5 410.9476,-125.5 413.7809,-125.5 416.6143,-128.3333 416.6143,-131.1667 416.6143,-131.1667 416.6143,-136.8333 416.6143,-136.8333 416.6143,-139.6667 413.7809,-142.5 410.9476,-142.5"/>
<text text-anchor="middle" x="365.0762" y="-131.3" font-family="Helvetica,sans-Serif" font-size="9.00" fill="#000000">getFilteredProducts.js</text>
</a>
</g>
</g>
<!-- src/domain/reducers/index.js -->
<g id="node10" class="node">
<title>src/domain/reducers/index.js</title>
<g id="a_node10"><a xlink:href="src/domain/reducers/index.js" xlink:title="index.js">
<path fill="#ffffcc" stroke="#000000" d="M142.3333,-98.5C142.3333,-98.5 99.6667,-98.5 99.6667,-98.5 96.8333,-98.5 94,-95.6667 94,-92.8333 94,-92.8333 94,-87.1667 94,-87.1667 94,-84.3333 96.8333,-81.5 99.6667,-81.5 99.6667,-81.5 142.3333,-81.5 142.3333,-81.5 145.1667,-81.5 148,-84.3333 148,-87.1667 148,-87.1667 148,-92.8333 148,-92.8333 148,-95.6667 145.1667,-98.5 142.3333,-98.5"/>
<text text-anchor="middle" x="121" y="-87.3" font-family="Helvetica,sans-Serif" font-size="9.00" fill="#000000">index.js</text>
</a>
</g>
</g>
<!-- src/domain/reducers/index.js&#45;&gt;src/domain/actionTypes.js -->
<g id="edge7" class="edge">
<title>src/domain/reducers/index.js&#45;&gt;src/domain/actionTypes.js</title>
<path fill="none" stroke="#000000" d="M121.676,-98.5378C124.8941,-138.1131 139.2131,-302.4047 156.2498,-317 200.9033,-355.2547 233.4324,-337.484 288.5483,-317 314.9126,-307.2016 338.2678,-283.7931 352.0437,-267.6628"/>
<polygon fill="#000000" stroke="#000000" points="355.0349,-269.5348 358.6698,-259.5829 349.6223,-265.0959 355.0349,-269.5348"/>
</g>
<!-- src/domain/reducers/index.js&#45;&gt;src/domain/getDefaultState.js -->
<g id="edge8" class="edge">
<title>src/domain/reducers/index.js&#45;&gt;src/domain/getDefaultState.js</title>
<path fill="none" stroke="#000000" d="M123.3588,-81.4832C127.5207,-68.3091 137.5494,-43.4228 156.2498,-33 207.6104,-4.3739 231.6646,-18.1134 288.5483,-33 309.5483,-38.4957 330.8709,-51.1877 345.656,-61.3666"/>
<polygon fill="#000000" stroke="#000000" points="343.7835,-64.3302 353.9557,-67.2928 347.8512,-58.6333 343.7835,-64.3302"/>
</g>
<!-- src/domain/reducers/reducerSelectCategory.js -->
<g id="node11" class="node">
<title>src/domain/reducers/reducerSelectCategory.js</title>
<g id="a_node11"><a xlink:href="src/domain/reducers/reducerSelectCategory.js" xlink:title="reducerSelectCategory.js">
<path fill="#ffffcc" stroke="#000000" d="M273.4924,-142.5C273.4924,-142.5 168.0559,-142.5 168.0559,-142.5 165.2226,-142.5 162.3893,-139.6667 162.3893,-136.8333 162.3893,-136.8333 162.3893,-131.1667 162.3893,-131.1667 162.3893,-128.3333 165.2226,-125.5 168.0559,-125.5 168.0559,-125.5 273.4924,-125.5 273.4924,-125.5 276.3258,-125.5 279.1591,-128.3333 279.1591,-131.1667 279.1591,-131.1667 279.1591,-136.8333 279.1591,-136.8333 279.1591,-139.6667 276.3258,-142.5 273.4924,-142.5"/>
<text text-anchor="middle" x="220.7742" y="-131.3" font-family="Helvetica,sans-Serif" font-size="9.00" fill="#000000">reducerSelectCategory.js</text>
</a>
</g>
</g>
<!-- src/domain/reducers/index.js&#45;&gt;src/domain/reducers/reducerSelectCategory.js -->
<g id="edge9" class="edge">
<title>src/domain/reducers/index.js&#45;&gt;src/domain/reducers/reducerSelectCategory.js</title>
<path fill="none" stroke="#000000" d="M128.8358,-98.6973C135.4737,-105.5236 145.5895,-114.7265 156.2498,-120 157.5983,-120.6671 158.9781,-121.3026 160.3825,-121.908"/>
<polygon fill="#000000" stroke="#000000" points="159.3441,-125.2563 169.9366,-125.482 161.7968,-118.7 159.3441,-125.2563"/>
</g>
<!-- src/domain/reducers/reducerSetProductFilter.js -->
<g id="node12" class="node">
<title>src/domain/reducers/reducerSetProductFilter.js</title>
<g id="a_node12"><a xlink:href="src/domain/reducers/reducerSetProductFilter.js" xlink:title="reducerSetProductFilter.js">
<path fill="#ffffcc" stroke="#000000" d="M274.6567,-84.5C274.6567,-84.5 166.8916,-84.5 166.8916,-84.5 164.0583,-84.5 161.225,-81.6667 161.225,-78.8333 161.225,-78.8333 161.225,-73.1667 161.225,-73.1667 161.225,-70.3333 164.0583,-67.5 166.8916,-67.5 166.8916,-67.5 274.6567,-67.5 274.6567,-67.5 277.49,-67.5 280.3234,-70.3333 280.3234,-73.1667 280.3234,-73.1667 280.3234,-78.8333 280.3234,-78.8333 280.3234,-81.6667 277.49,-84.5 274.6567,-84.5"/>
<text text-anchor="middle" x="220.7742" y="-73.3" font-family="Helvetica,sans-Serif" font-size="9.00" fill="#000000">reducerSetProductFilter.js</text>
</a>
</g>
</g>
<!-- src/domain/reducers/index.js&#45;&gt;src/domain/reducers/reducerSetProductFilter.js -->
<g id="edge10" class="edge">
<title>src/domain/reducers/index.js&#45;&gt;src/domain/reducers/reducerSetProductFilter.js</title>
<path fill="none" stroke="#000000" d="M148.0003,-86.2114C149.0391,-86.0656 150.0949,-85.9175 151.165,-85.7673"/>
<polygon fill="#000000" stroke="#000000" points="151.7027,-89.2263 161.1193,-84.3706 150.7299,-82.2942 151.7027,-89.2263"/>
</g>
<!-- src/domain/reducers/reducerToggleProduct.js -->
<g id="node13" class="node">
<title>src/domain/reducers/reducerToggleProduct.js</title>
<g id="a_node13"><a xlink:href="src/domain/reducers/reducerToggleProduct.js" xlink:title="reducerToggleProduct.js">
<path fill="#ffffcc" stroke="#000000" d="M271.6607,-55.5C271.6607,-55.5 169.8876,-55.5 169.8876,-55.5 167.0543,-55.5 164.2209,-52.6667 164.2209,-49.8333 164.2209,-49.8333 164.2209,-44.1667 164.2209,-44.1667 164.2209,-41.3333 167.0543,-38.5 169.8876,-38.5 169.8876,-38.5 271.6607,-38.5 271.6607,-38.5 274.4941,-38.5 277.3274,-41.3333 277.3274,-44.1667 277.3274,-44.1667 277.3274,-49.8333 277.3274,-49.8333 277.3274,-52.6667 274.4941,-55.5 271.6607,-55.5"/>
<text text-anchor="middle" x="220.7742" y="-44.3" font-family="Helvetica,sans-Serif" font-size="9.00" fill="#000000">reducerToggleProduct.js</text>
</a>
</g>
</g>
<!-- src/domain/reducers/index.js&#45;&gt;src/domain/reducers/reducerToggleProduct.js -->
<g id="edge11" class="edge">
<title>src/domain/reducers/index.js&#45;&gt;src/domain/reducers/reducerToggleProduct.js</title>
<path fill="none" stroke="#000000" d="M129.5179,-81.4214C136.2287,-75.1413 146.1151,-66.8936 156.2498,-62 158.5606,-60.8842 160.9588,-59.8489 163.4115,-58.8887"/>
<polygon fill="#000000" stroke="#000000" points="164.7678,-62.123 173.0731,-55.5448 162.4783,-55.508 164.7678,-62.123"/>
</g>
<!-- src/domain/reducers/reducersLoad.js -->
<g id="node14" class="node">
<title>src/domain/reducers/reducersLoad.js</title>
<g id="a_node14"><a xlink:href="src/domain/reducers/reducersLoad.js" xlink:title="reducersLoad.js">
<path fill="#ffffcc" stroke="#000000" d="M255.1446,-113.5C255.1446,-113.5 186.4037,-113.5 186.4037,-113.5 183.5704,-113.5 180.7371,-110.6667 180.7371,-107.8333 180.7371,-107.8333 180.7371,-102.1667 180.7371,-102.1667 180.7371,-99.3333 183.5704,-96.5 186.4037,-96.5 186.4037,-96.5 255.1446,-96.5 255.1446,-96.5 257.978,-96.5 260.8113,-99.3333 260.8113,-102.1667 260.8113,-102.1667 260.8113,-107.8333 260.8113,-107.8333 260.8113,-110.6667 257.978,-113.5 255.1446,-113.5"/>
<text text-anchor="middle" x="220.7742" y="-102.3" font-family="Helvetica,sans-Serif" font-size="9.00" fill="#000000">reducersLoad.js</text>
</a>
</g>
</g>
<!-- src/domain/reducers/index.js&#45;&gt;src/domain/reducers/reducersLoad.js -->
<g id="edge12" class="edge">
<title>src/domain/reducers/index.js&#45;&gt;src/domain/reducers/reducersLoad.js</title>
<path fill="none" stroke="#000000" d="M148.0003,-94.0592C154.9826,-95.1089 162.7285,-96.2734 170.4873,-97.4399"/>
<polygon fill="#000000" stroke="#000000" points="170.2221,-100.9393 180.6313,-98.9649 171.2628,-94.0171 170.2221,-100.9393"/>
</g>
<!-- src/domain/reducers/reducerSelectCategory.js&#45;&gt;src/domain/getDefaultState.js -->
<g id="edge13" class="edge">
<title>src/domain/reducers/reducerSelectCategory.js&#45;&gt;src/domain/getDefaultState.js</title>
<path fill="none" stroke="#000000" d="M273.673,-125.4627C278.7989,-123.9288 283.8386,-122.1236 288.5483,-120 292.6,-118.1731 292.8184,-116.4167 296.5483,-114 310.2372,-105.1309 326.1355,-96.2341 339.1709,-89.2809"/>
<polygon fill="#000000" stroke="#000000" points="340.8652,-92.3444 348.0843,-84.5897 337.605,-86.15 340.8652,-92.3444"/>
</g>
<!-- src/domain/reducers/reducerSelectCategory.js&#45;&gt;src/domain/lib/getFilteredProducts.js -->
<g id="edge14" class="edge">
<title>src/domain/reducers/reducerSelectCategory.js&#45;&gt;src/domain/lib/getFilteredProducts.js</title>
<path fill="none" stroke="#000000" d="M279.0514,-134C287.0812,-134 295.3494,-134 303.4374,-134"/>
<polygon fill="#000000" stroke="#000000" points="303.5544,-137.5001 313.5544,-134 303.5544,-130.5001 303.5544,-137.5001"/>
</g>
<!-- src/domain/reducers/reducerSetProductFilter.js&#45;&gt;src/domain/getDefaultState.js -->
<g id="edge15" class="edge">
<title>src/domain/reducers/reducerSetProductFilter.js&#45;&gt;src/domain/getDefaultState.js</title>
<path fill="none" stroke="#000000" d="M280.7176,-76C290.8325,-76 301.2772,-76 311.2249,-76"/>
<polygon fill="#000000" stroke="#000000" points="311.377,-79.5001 321.377,-76 311.3769,-72.5001 311.377,-79.5001"/>
</g>
<!-- src/domain/reducers/reducerSetProductFilter.js&#45;&gt;src/domain/lib/getFilteredProducts.js -->
<g id="edge16" class="edge">
<title>src/domain/reducers/reducerSetProductFilter.js&#45;&gt;src/domain/lib/getFilteredProducts.js</title>
<path fill="none" stroke="#000000" d="M279.8942,-84.5579C283.0262,-86.3594 285.9479,-88.4884 288.5483,-91 298.7831,-100.8853 286.0964,-112.3447 296.5483,-122 298.8689,-124.1437 301.4307,-125.9746 304.1601,-127.5343"/>
<polygon fill="#000000" stroke="#000000" points="302.8001,-130.7601 313.3581,-131.6432 305.6552,-124.3688 302.8001,-130.7601"/>
</g>
<!-- src/domain/reducers/reducerToggleProduct.js&#45;&gt;src/domain/getDefaultState.js -->
<g id="edge17" class="edge">
<title>src/domain/reducers/reducerToggleProduct.js&#45;&gt;src/domain/getDefaultState.js</title>
<path fill="none" stroke="#000000" d="M263.2891,-55.5441C278.7107,-58.6434 296.3188,-62.182 312.5046,-65.4348"/>
<polygon fill="#000000" stroke="#000000" points="311.8729,-68.8778 322.3665,-67.4168 313.2522,-62.015 311.8729,-68.8778"/>
</g>
<!-- src/domain/reducers/reducersLoad.js&#45;&gt;src/domain/getDefaultState.js -->
<g id="edge18" class="edge">
<title>src/domain/reducers/reducersLoad.js&#45;&gt;src/domain/getDefaultState.js</title>
<path fill="none" stroke="#000000" d="M260.9703,-96.9219C277.0041,-93.6996 295.6764,-89.9471 312.7445,-86.517"/>
<polygon fill="#000000" stroke="#000000" points="313.4621,-89.9428 322.5765,-84.541 312.0829,-83.08 313.4621,-89.9428"/>
</g>
<!-- src/domain/reducers/reducersLoad.js&#45;&gt;src/domain/lib/getFilteredProducts.js -->
<g id="edge19" class="edge">
<title>src/domain/reducers/reducersLoad.js&#45;&gt;src/domain/lib/getFilteredProducts.js</title>
<path fill="none" stroke="#000000" d="M260.2371,-113.5444C269.5333,-115.6097 279.399,-117.8443 288.5483,-120 292.1156,-120.8405 292.9632,-121.239 296.5483,-122 299.0295,-122.5267 301.5647,-123.0477 304.1284,-123.5604"/>
<polygon fill="#000000" stroke="#000000" points="303.6211,-127.0271 314.104,-125.4916 304.9515,-120.1547 303.6211,-127.0271"/>
</g>
<!-- src/domain/store.js -->
<g id="node15" class="node">
<title>src/domain/store.js</title>
<g id="a_node15"><a xlink:href="src/domain/store.js" xlink:title="store.js">
<path fill="#ffffcc" stroke="#000000" d="M72.3333,-98.5C72.3333,-98.5 29.6667,-98.5 29.6667,-98.5 26.8333,-98.5 24,-95.6667 24,-92.8333 24,-92.8333 24,-87.1667 24,-87.1667 24,-84.3333 26.8333,-81.5 29.6667,-81.5 29.6667,-81.5 72.3333,-81.5 72.3333,-81.5 75.1667,-81.5 78,-84.3333 78,-87.1667 78,-87.1667 78,-92.8333 78,-92.8333 78,-95.6667 75.1667,-98.5 72.3333,-98.5"/>
<text text-anchor="middle" x="51" y="-87.3" font-family="Helvetica,sans-Serif" font-size="9.00" fill="#000000">store.js</text>
</a>
</g>
</g>
<!-- src/domain/store.js&#45;&gt;src/domain/reducers/index.js -->
<g id="edge20" class="edge">
<title>src/domain/store.js&#45;&gt;src/domain/reducers/index.js</title>
<path fill="none" stroke="#000000" d="M78.2643,-90C80.0061,-90 81.7749,-90 83.5522,-90"/>
<polygon fill="#000000" stroke="#000000" points="83.695,-93.5001 93.695,-90 83.695,-86.5001 83.695,-93.5001"/>
</g>
</g>
</svg>
